<svg width="750" height="334" viewBox="0 0 750 334" fill="none" xmlns="http://www.w3.org/2000/svg">
<g clip-path="url(#clip0_210_58)">
<path d="M676.632 184.035C661.086 180.18 644.471 179.502 628.751 180.682C608.048 182.238 587.621 187.237 568.378 194.996C557.377 199.434 546.794 204.934 536.899 211.508C511.965 228.064 490.562 251.569 461.493 261.01C422.815 273.561 382.204 257.589 344.483 248.915C323.176 244.016 301.052 240.793 279.488 244.36C257.924 247.926 236.817 259.1 225.291 277.756C225.291 277.756 269.148 243.272 348.792 271.466C365.905 277.528 382.422 285.688 400.309 289.323C419.341 293.197 439.505 292.585 458.509 288.861C485.588 283.564 509.365 270.211 531.743 254.415C563.901 231.72 596.775 206.452 636.281 198.836C666.162 193.074 700.226 196.624 725.362 215.13C713.217 198.328 695.745 188.783 676.641 184.044L676.632 184.035Z" fill="#2288B5"/>
<path d="M583.567 238.722C560.825 251.521 541.842 271.206 519.214 284.634C504.518 293.356 488.579 300.43 471.768 303.775C455.696 306.969 437.381 307.672 421.072 307.463C425.116 308.162 429.159 308.862 433.21 309.552C456.603 313.524 479.439 314.649 502.793 310.576C525.126 306.676 546.135 297.145 565.563 285.67C587.701 272.588 607.814 256.52 629.472 242.714C649.466 229.97 670.782 227.843 694.057 227.244C722.592 226.506 744.729 237.571 744.729 237.571C699.751 199.106 630.768 212.172 583.575 238.721L583.567 238.722Z" fill="#29A9E0"/>
<path d="M429.162 227.771C409.044 225.569 389.227 221.724 369.339 218.316C349.198 214.866 328.707 212.38 308.237 212.631C293.42 212.847 278.33 214.191 264.646 219.901C250.962 225.612 238.72 236.242 233.977 250.351C245.394 232.539 265.045 228.097 283.871 225.996C324.886 221.417 366.895 235.918 407.159 241.498C504.987 255.059 550.565 189.98 550.565 189.98C550.565 189.98 496.707 235.18 429.162 227.771Z" fill="#29A9E0"/>
<path d="M440.941 200.156C425.202 198.939 409.895 196.788 394.652 192.809C374.797 187.629 355.209 183.199 334.577 184.739C314.168 186.27 291.129 192.438 278.937 203.667C278.937 203.676 307.017 187.013 361.557 201.971C377.183 206.26 393.117 209.509 409.2 211.65C443.418 216.202 481.01 212.912 511.317 195.194C518.001 191.283 525.222 186.519 530.12 180.366C530.12 180.366 492.316 204.155 440.942 200.165L440.941 200.156Z" fill="#2288B5"/>
</g>
<path d="M0 165.598H52.6565C48.7491 147.55 44.6557 118.896 44.4696 92.8467H62.7041C78.3336 119.826 115.733 185.693 162.621 206.533C209.51 227.372 244.49 189.415 244.49 189.415C111.267 200.579 144.495 117.221 97.6844 89.1254C153.69 69.5885 157.597 0.186065 66.4254 0H0.186065C11.35 50.7959 11.35 114.802 0 165.598ZM78.8918 7.07049C87.0786 9.11721 94.5212 16.3738 98.9868 29.5844C99.9171 32.1893 100.661 34.7942 101.034 37.3992C106.802 64.9368 92.2885 86.1483 62.1459 86.1483H44.2836C44.2836 44.0975 50.7959 0 78.8918 7.07049Z" fill="#00344A"/>
<path d="M253.421 107.918C253.421 62.1459 224.767 32.0033 184.949 37.3992C153.395 41.6752 144.015 73.3098 144.015 107.918C144.015 142.526 163.179 169.32 198.532 169.32C233.884 169.32 253.421 142.526 253.421 107.918ZM208.021 53.7729C231.838 50.9819 217.511 159.272 190.345 162.435C162.435 165.784 178.995 57.1221 208.021 53.7729Z" fill="#00344A"/>
<path d="M307.38 37.3992C352.036 146.806 305.519 161.133 301.426 133.223C297.519 108.476 287.285 45.7721 272.028 37.3992L231.5 37.3992C275.5 57.5 266 125.5 272.028 153.504C275.563 163.365 285.238 169.32 295.658 169.32C312.218 169.32 333.801 164.668 341.988 133.223C340.5 143.084 355.013 157.411 352.036 169.32H384.411C368.41 128.385 311.846 92.8467 372.875 37.3992H307.38Z" fill="#00344A"/>
<path d="M411.019 117.221C411.019 105.127 412.507 93.4049 414.368 86.3344C424.787 47.2606 455.86 36.4688 446.743 79.2639C443.022 96.754 428.881 116.291 411.019 117.221ZM442.278 168.575C458.465 165.598 468.885 155.551 473.909 146.806C486.189 126.152 465.908 107.732 436.882 130.99C447.301 138.619 454.744 162.435 441.347 163.179C422.555 164.296 412.321 143.084 411.205 122.803C434.463 122.617 480.607 105.871 479.119 75.1704C478.374 58.7967 458.837 39.6319 441.347 37.3992C400.785 32.1893 364.316 46.7024 364.316 86.3344C364.316 116.849 397.808 169.32 433.905 169.32C436.882 169.32 439.673 169.133 442.278 168.575Z" fill="#00344A"/>
<path d="M471.49 169.32L529.542 168.575C518.564 100.847 545.916 60.4713 559.127 60.4713C562.848 60.4713 565.825 63.4483 566.755 69.5885C570.477 94.3352 547.591 142.898 555.591 169.32L605.457 168.575C579.222 119.454 605.829 89.4975 596.154 62.1459C592.432 51.7262 584.059 37.3992 574.198 37.3992C553.545 37.3992 526.937 70.1467 524.705 120.943C523.03 98.6147 525.635 65.8672 532.705 37.3992H467.024C510.936 60.4713 505.726 135.828 471.49 169.32Z" fill="#00344A"/>
<defs>
<clipPath id="clip0_210_58">
<rect width="520.983" height="139.921" fill="white" transform="translate(218.408 194.323) rotate(-4.71617)"/>
</clipPath>
</defs>
</svg>
