<svg baseProfile="tiny" xmlns="http://www.w3.org/2000/svg" viewBox="0 0 2281.89 1601.575"><path fill="#60C4E2" d="M0 0h2281.9v1601.58H0z"/><path fill="#F6B395" d="M2063.08 247.8l27.1-19.66 191.7-181.2V1601.6H0v-538.72l209.75-67.5 70.5 109.5L563 1110.3l65.56 51.15 52.46-31.47 78.67-35.4 2.6 45.9 56.4 9.17 55-14.42 68.2 73.43 752.6-146.87"/><path fill="#FCE8DE" d="M2062.7 248.16l-12.77 8.3-6.27 7.6-6.94 2.9-30 30h-6.04l-5.37 10.53-8.7 1.5-16.8 10.9-6.9 2.7-7.4 5.8h-9.8l-2.9 4.7-13.6 2.7s-5.3 4.2-6 4.2c-.6 0-26.6-1.4-26.6-1.4l-8.3 5.1-26.2 11.2-17.4 2.9-13.4 7.1-9.8 3.6-15.7-.2-4.2.4-6.9-1.2-10.7 2.9-8.2.9-11.6 2-17.9 5.1-28 21.5s-33.8 21.5-35.1 21.7c-1.3.2-26.4 13.4-26.4 13.4l-6 5.6-13.6 9.6-4.9-.7-18.6 9.8-9.6 4-5.4.2-16.8 13.6-6.7 6.1s-.2 11.6-.7 12.3c-.4.7-3.1 6-3.1 6l.7 9.2-15 29.5-6.1 13.9-12.5 27.5-1.1 12.5 7.7 7.6 5.3 9.8 5.8 8 23.8 8.8 28.9 4.5 23.9 6 31.6-5.4 32-15.8 7-3.8-11.2 9-19.2 10.3-20.6 6.7-24.6 4.2-28.6.7-7.8 3.2-11.4 7.6-16.5 4.7-19.4 16.4-4.9 6.1-15.6 14s-4.2 5-5.6 5.2c-1.3.2-14.1 9.8-15.2 9.8s-21.1 9.4-21.1 9.4h-8l-8.9 4.9-12.5 3.8-21.7 2.5-24-1.1-10.9-2.5-35.3-18.8-11.2-6.7-27.5-2.3-29.3-4.9-13.2.5-17.2 3.4-8.3-1.4-3.1-.9-21-.9-35.8-4.3-30-7.4-24.6-14.4-6.2-4.5-15-.6-11.2-.2-17.5 3.3h-9.4l-5.3.6-7.4 8-9.2 10 1.4 12.3-6.5-7.8-8.7-5.6-7.2 1.5-6.7 3.1 8.1-15.5 1.8-7.8-1.8-11.4-29.6-36.5L989 588l-9.6-17.43 4.5-22 12.3.9 6.3-20.1 11.2 5.8-.45-11.4-5.2-16.14V503l-4.7-4.9-5.4-5.2-2-5.54 4.5-3.5-4.5-6.5-9.8 2-13.7-2.9-8.5-3.15-10.1-2.2-14.3 1.6-19.3 5.1-5.6-1.8-2.7 4.7v6l-8.1 9.2-21.3 8.3-14.3-.9-8.75 1.6-2.9 4.7-6.5-.9-3.6-5.8-6.7-1.8-8.3-.2-2.5-2.9v-4l-10.9-.7-6.5-4.7-13.2.2-15.47-5.6-11.6-1.8-2.7-9.8-12.1-4.5-9.2 4.7-7.2-7.8-12.1-5.2-5.8 3.4V480l2.5 2.25-2.3 6.73 3.2 5.6 22.6 5.14 9 7.2 5.6 30-1.3 19.9-4.23 11.2-9.8 9.87 4 12.1 10.06 7.8-1.3 17 9.7 13.2.2 29.6-1.8 6.7 8.5 17 9 .9 7.2 2.9 11.8 15 6.5 12.7 5.6 1.3 14.1 30 19 32.9 7.2-8.8 11.2 1.1-9.4 9.6 1.1 24.6 3.4 26.2-4.2 11.6-.2 20.6 2.7 27.9 9 22.6 4.9-22.6 11.2-3.2-5.1 9.6L877 918l.7 29.3 5.4 1.1-1.1 21.2-5.17-15-5.14 40.1-9.4 14.1 11.2 15 .2 24.6.5 13.6 8.5 12.3 9.4 2.2 1.3 10.5 7.8 15.9 12.7 2.5 8 8.7 2.7 7.2 5.9-7.4 9.4-1.6 7.8-5.6.2 2.7-9.9 5.3.4 7.4-4.9 4.9 6.5.9 9.6-2-.4 2.25-11.6 2.9-27.5 1.1-22.8-3.4-17.7 1.5 5.4 12.3 1.7 5.8 8.1 4.1.4 14.5 8.5 4.7.7 15.9 8.3 24.6 6.5 12.3 16.8 1.4 5.2 15.7h16l10.1.7 5.8-6.9 3.6-12.3 8.5-5.6 5.1 1.8 11-7.9 3.6-13 15-4.23 16.6 5.8 9.6-.9 3.5 8.5 12.5-4.7 16.8 7.2 15.5-.9 11.6 10.7 8.7 2.7 7.4-1.6 7.3-4.9 2-8.7 13.4 3.13 4.9 6.7 16.8.2h7.8l5.3 7.6 7.2 7.6 3.8 10.1 11.9-4.3 1.5 12.1 11 3.1 15.2-5.8-7-10.3 13.4-4.3 7.2 1.2 5.2-8.9 4.9 16.1-1.5 8.7 3.4.5 17-11.6 5.4-5.8 8.3 1.6 11.7-2.9 4.9-11.4 10.7-6.5 14.1.5 6.7-3.1 8.3-3.1 8.5 4.7 16.2 7.2 6.7-2.23 10.5-9.6 13.2-2.9 6.9 3.1 2.9 3.35 4-2-1.3-5.37 6.5-5.6 8.23-4.7-7.6-11 1.8-7.2 5.8 1.58 8.5.9 13.9 13.6 12.1 9.6-.8 5.2-3.3-1.8-7.2 8.3 6.7 4.9 5.2 9.6-1.16 14.58 11 5.82 14.6.9 7.6-6.1 5.8 4-.4 15.7.4 7.4-2.9 4.9 1.8 9 .2 10.3 7.6-1.4 4.2-10.1 11-3.1 7.8 10 16.4-.2-2-7.4 6.5-10.5 11.4-.2 5.1-7.2 6.5-5.2 14.1-4.5-5.8-8.3 8 1.4.7-7.6h10.3l10.75-5.12 13.2-.9 7-5.33 8.1.43 14.1 7.6 13.7 9.4 1.36 12.3 4 7.9-1.1 19.9 2.9 13.9 1.3 17 5.85 10 9.2-1.52 5.3 9.6h8.5l10.8 5.6 6.2-8.5 4 9.6-3.4 7.2 7.6 9.2 6.7.7.2 10.1 19 13.2 17-5.8 5.6-13.65 9.6-2 9.8 8.1 22.6 10.7 19 .4 4-13.9-2-12.3 4.7-10.1-12.7-5.8-3.6 2.4-1.6-8.7 7.6-11.9 15-11.7 9.4 3.8 15-4.4 18.2-17.1 13.2-12.3-2.7-10.8 14.1-13.8-11.9-7.9-6.5-15.7 8.7-3.9-2.7-10.2 4.5-13.8-12.6-15.8-13.7-10.8-10.4-2.4-8.3-7.7-2.7-15.8-8.9-3.3 2.7-10.8-4.4-16.7-2.7-6.3 8.7-5.3 14.3-5.8V1086l8.5-4.46 17.5 6.3 16.6-14.3 17.5 4.5 8.9-5.4 8.05-9 23.3 2.7 4.5-21.5 14.8 9.8 19.7-2.6h18.8l19.7 7.6 11.67-1.8 11.6-10.7-3.6-26.4 18.4-18.8 2.7-6 17.22-3.8 5.3-7.6.9-11.4-4.5-13.7 2.5-8.1 13.4-2-1.4-18.1 8.7-9.2-7-2-12.3 2-.9-7.88 4.4-11.2-8.5-17.5.9-11.6 6-2.4 5.8 4.07 13-8.3 22.8-1.1 6.7-6.5 8.27 2.7 5.2-8.5 1.3-7.68 10.1-14.5 5.4-21.5 3.8-13.6.2-19.5 9.6-7.88 4.5-5.18 2.7-16.4 13.2-4.3 8.5 7.6 7.8 3.8 4.2-12-.2-9.2-9.8-4.1-2.2-32.4-3.8-14.5L2206 666l4.23-7.9-8.5-.5 6.7-19.7 9.9-10.3 9.4-9.2 6.1-13-5.4-12.8-13.2 8.3-10.3-1.4 3.1-8.3 6.5-5.15.9-11.2-8.7-5.8.2-14.33-8.94-1.8 4.7-5.8-2.4-14.3 5.8-11.6-7.9-8.7 8-12.6.2-6.5 13.4-7.1-2.9-11.4h-7.9l-8.8 13-7.4-7.6 10.5-7.4-.7-18.8 11.2-1.1V447l7.6-6.27-1.1-19-6.7-15.2-8.3-20.37-.9-18.35-.7-9.6-11.4-7.1-12.3-19.5-22.2-7.6-6.5-9.9-17.1-20.8-17.9-18.4-18.4-12.8-.3-15.4-11.2-4.2-7.2 5.8-10.1 1.6-6.5-1.5z"/><path fill="none" stroke="#60C4E2" stroke-width="15" stroke-miterlimit="10" d="M1949.86 643.5s-108.74-193.44-338.83-66.74"/><path fill="#60C4E2" d="M1624.42 539.92l-9.5 34.7 34.7 9.5-18.77 10.68-34.7-9.5 9.5-34.7"/><path fill="none" stroke="#60C4E2" stroke-width="15" stroke-miterlimit="10" d="M1950.76 647.98s104.97 78.3 40.9 214.84"/><path fill="#60C4E2" d="M1982.23 824.67l11.33 34.15 34.13-11.35-9.7 19.3-34.2 11.34-11.4-34.1"/><path fill="none" stroke="#60C4E2" stroke-width="15" stroke-miterlimit="10" d="M1937.33 636.34c2.4-3.96-167.4 281.4-521.8 182.12"/><path fill="#60C4E2" d="M1451.36 802.46l-31.57 17.23 17.2 31.5-20.7-6.1-17.3-31.6 31.5-17.3"/><path fill="none" stroke="#60C4E2" stroke-width="15" stroke-miterlimit="10" d="M1949.86 647.08s-506.78 783.9-1077-96.66"/><path fill="#60C4E2" d="M910.6 561.44l-35.2-7.4-7.37 35.22-11.8-18.08 7.38-35.2 35.2 7.4"/><path fill="none" stroke="#60C4E2" stroke-width="15" stroke-miterlimit="10" d="M1954.34 665s-277.54 641.04-1006.5 480.9"/><path fill="#60C4E2" d="M982.5 1127.34l-30.3 19.4 19.42 30.28-21.1-4.62-19.4-30.3 30.3-19.38"/><path fill="none" stroke="#60C4E2" stroke-width="15" stroke-miterlimit="10" d="M1965.1 658.72s-65.08 419.92-384.8 579.12"/><path fill="#60C4E2" d="M1596.2 1201.95l-11.93 33.94 33.95 11.9-19.46 9.3-33.94-11.9 11.9-34"/><path fill="none" stroke="#60C4E2" stroke-width="15" stroke-miterlimit="10" d="M1949.87 622.42s83.33-101.3 12.27-247.06"/><path fill="#60C4E2" d="M1998.37 390.3l-34.25-10.97-10.97 34.26-9.88-19.2 10.97-34.3 34.26 10.9"/><path fill="#F18B5C" d="M1949.86 684.67c-22.7 0-41.17-18.47-41.17-41.17s18.4-41.17 41.1-41.17 41.2 18.47 41.2 41.17-18.5 41.17-41.2 41.17z"/><path fill="#FCE8DE" d="M1949.86 606.33c20.53 0 37.18 16.64 37.18 37.17s-16.65 37.17-37.18 37.17-37.17-16.64-37.17-37.17 16.6-37.17 37.1-37.17m0-8c-24.9 0-45.2 20.26-45.2 45.17s20.2 45.17 45.1 45.17 45.2-20.27 45.2-45.17-20.3-45.17-45.2-45.17z"/><path fill="#F18B5C" d="M1568.7 628.1c-15.87 0-28.78-12.9-28.78-28.78s12.9-28.78 28.78-28.78 28.78 12.9 28.78 28.78-12.9 28.8-28.78 28.8z"/><path fill="#FCE8DE" d="M1568.7 574.54c13.7 0 24.78 11.1 24.78 24.8 0 13.67-11.1 24.77-24.78 24.77-13.68 0-24.78-11.1-24.78-24.7 0-13.7 11.1-24.8 24.78-24.8m0-8c-18.07 0-32.78 14.7-32.78 32.8 0 18.1 14.7 32.8 32.78 32.8s32.78-14.7 32.78-32.7c0-18.1-14.7-32.8-32.78-32.8z"/><path fill="#F18B5C" d="M1361.56 833.46c-15.87 0-28.78-12.9-28.78-28.78s12.9-28.78 28.78-28.78 28.78 12.9 28.78 28.78-12.9 28.78-28.78 28.78z"/><path fill="#FCE8DE" d="M1361.56 779.9c13.7 0 24.78 11.1 24.78 24.78 0 13.7-11.1 24.78-24.78 24.78s-24.78-11.1-24.78-24.78c0-13.7 11.1-24.78 24.78-24.78m0-8c-18.08 0-32.78 14.7-32.78 32.78 0 18.08 14.7 32.78 32.78 32.78s32.78-14.7 32.78-32.78c0-18.08-14.7-32.78-32.78-32.78z"/><path fill="#F18B5C" d="M1973.6 915.1c-10.4 0-18.88-8.46-18.88-18.86s8.47-18.87 18.87-18.87 18.8 8.46 18.8 18.87-8.5 18.87-18.9 18.87z"/><path fill="#FCE8DE" d="M1973.6 881.37c8.2 0 14.86 6.66 14.86 14.87s-6.66 14.87-14.87 14.87c-8.3 0-14.9-6.6-14.9-14.8s6.6-14.8 14.8-14.8m0-8c-12.6 0-22.9 10.3-22.9 22.9s10.2 22.9 22.8 22.9c12.6 0 22.8-10.2 22.8-22.8s-10.3-22.8-22.9-22.8z"/><path fill="#F18B5C" d="M1944.62 356.3c-10.4 0-18.86-8.48-18.86-18.88s8.46-18.87 18.86-18.87 18.87 8.46 18.87 18.87-8.5 18.87-18.9 18.87z"/><path fill="#FCE8DE" d="M1944.62 322.55c8.22 0 14.87 6.65 14.87 14.87s-6.7 14.87-14.9 14.87-14.9-6.7-14.9-14.9 6.6-14.9 14.8-14.9m0-8c-12.6 0-22.9 10.2-22.9 22.8s10.2 22.8 22.8 22.8c12.6 0 22.9-10.3 22.9-22.9s-10.3-22.9-22.9-22.9z"/><path fill="#F18B5C" d="M1543.63 1276.05c-10.4 0-18.87-8.47-18.87-18.87s8.47-18.87 18.87-18.87 18.87 8.5 18.87 18.9-8.46 18.9-18.87 18.9z"/><path fill="#FCE8DE" d="M1543.63 1242.3c8.2 0 14.87 6.66 14.87 14.88 0 8.2-6.66 14.86-14.87 14.86-8.2 0-14.87-6.65-14.87-14.86 0-8.22 6.66-14.87 14.87-14.87m0-8c-12.6 0-22.87 10.3-22.87 22.9 0 12.6 10.26 22.9 22.87 22.9 12.6 0 22.87-10.2 22.87-22.8 0-12.6-10.26-22.8-22.87-22.8z"/><path fill="#F18B5C" d="M854 532.66c-10.4 0-18.88-8.47-18.88-18.87s8.48-18.9 18.88-18.9 18.86 8.4 18.86 18.8-8.46 18.9-18.86 18.9z"/><path fill="#FCE8DE" d="M854 498.92c8.2 0 14.86 6.66 14.86 14.87 0 8.2-6.66 14.8-14.87 14.8s-14.9-6.7-14.9-14.9c0-8.3 6.6-14.9 14.8-14.9m0-8c-12.6 0-22.9 10.2-22.9 22.9 0 12.6 10.2 22.8 22.8 22.8s22.8-10.3 22.8-22.9c0-12.6-10.3-22.9-22.9-22.9z"/><path fill="#F18B5C" d="M895.5 1151.95c-10.4 0-18.88-8.46-18.88-18.87s8.47-18.87 18.87-18.87 18.8 8.5 18.8 18.9-8.5 18.9-18.9 18.9z"/><path fill="#FCE8DE" d="M895.5 1118.2c8.2 0 14.86 6.67 14.86 14.88 0 8.2-6.65 14.87-14.87 14.87s-14.9-6.66-14.9-14.87c0-8.2 6.6-14.87 14.8-14.87m0-8c-12.6 0-22.9 10.3-22.9 22.9 0 12.6 10.2 22.9 22.8 22.9s22.8-10.2 22.8-22.8c0-12.6-10.3-22.8-22.9-22.8z"/><path d="M2022.86 628.92v22.73h-11.4v-56.87h19.68c6.48 0 11.56 1.48 15.2 4.43 3.67 3 5.5 7.1 5.5 12.4 0 2.9-.77 5.5-2.32 7.6-1.55 2.1-3.8 3.9-6.78 5.2 3.36 1 5.78 2.7 7.25 5 1.4 2.3 2.2 5.2 2.2 8.6v4.1c0 1.6.2 3.3.6 5 .4 1.8 1.1 3 2.2 3.9v.8h-11.8c-1.1-.8-1.8-2.2-2-4.1-.3-1.9-.5-3.7-.5-5.5V638c0-2.83-.8-5.04-2.4-6.62-1.6-1.56-3.8-2.35-6.6-2.35h-9.1zm0-8.8h8.08c3.2 0 5.6-.67 7.15-2.02 1.5-1.35 2.3-3.36 2.3-6.02 0-2.6-.8-4.67-2.4-6.2-1.6-1.54-3.9-2.3-7-2.3h-8.3v16.55zm36.94 10c0-6.3 1.77-11.45 5.28-15.5s8.4-6 14.6-6c6.26 0 11.16 2 14.7 6 3.54 4.03 5.3 9.2 5.3 15.5v.84c0 6.36-1.75 11.53-5.28 15.53-3.53 4-8.4 6-14.63 6-6.25 0-11.14-2-14.67-6-3.53-4-5.3-9.2-5.3-15.6v-.8zm11.38.83c0 3.85.67 6.95 2.03 9.28 1.4 2.33 3.6 3.5 6.6 3.5 3 0 5.1-1.18 6.5-3.52s2.1-5.4 2.1-9.2v-.8c0-3.7-.7-6.8-2-9.2-1.4-2.3-3.5-3.5-6.5-3.5s-5.1 1.2-6.5 3.6-2 5.5-2 9.2v.9zm61.44 14.45c-1.3 2.27-2.95 4.02-4.96 5.24-2 1.22-4.33 1.84-7 1.84-4.44 0-7.93-1.5-10.44-4.54-2.5-3.02-3.77-7.7-3.77-14.06v-24.5h11.37v24.58c0 3.7.5 6.23 1.5 7.6 1 1.37 2.56 2.05 4.67 2.05 1.8 0 3.3-.2 4.6-.8 1.3-.6 2.3-1.4 3.2-2.6v-30.8h11.4v42.3h-9.5l-1.2-6.2zm37.58 7.08c-6.3 0-11.22-1.94-14.76-5.8-3.55-3.87-5.32-8.85-5.32-14.95v-1.56c0-6.33 1.72-11.5 5.16-15.55 3.44-4.03 8.16-6.04 14.18-6 5.68 0 10.03 1.73 13.06 5.2 3.04 3.48 4.56 8.16 4.56 14.05v5.9h-25.2l-.12.23c.2 2.9 1.06 5.23 2.64 7.03 1.58 1.8 3.9 2.7 7 2.7 2.56 0 4.73-.27 6.52-.8 1.78-.5 3.62-1.3 5.52-2.37l3.1 7.03c-1.7 1.3-4 2.5-6.9 3.4s-6.03 1.4-9.44 1.4zm-.74-35.08c-2.3 0-4.06.8-5.3 2.36-1.23 1.58-1.98 3.67-2.24 6.27l.08.2h13.9v-.86c0-2.48-.5-4.42-1.52-5.84s-2.66-2.13-4.92-2.13zm34.7-8l.5 6.04c1.4-2.16 3.13-3.84 5.2-5.04 2.05-1.2 4.35-1.8 6.9-1.8 4.27 0 7.6 1.38 10 4.13 2.4 2.75 3.6 7.1 3.6 13.03v25.9h-11.45V625.8c0-3.03-.5-5.17-1.5-6.43-1-1.26-2.6-1.9-4.7-1.9-1.7 0-3.2.32-4.4.96-1.3.64-2.3 1.52-3.1 2.64v30.58h-11.4V609.4h10.6zm-842.08-52.66h19.1v6.56h-27.65v-42.65h8.55v36.1zm37.88 7.18c-4.72 0-8.4-1.45-11.07-4.35s-4-6.64-4-11.2v-1.18c0-4.8 1.3-8.7 3.8-11.7 2.6-3.1 6.1-4.6 10.6-4.5 4.2 0 7.5 1.3 9.8 3.9s3.4 6.1 3.4 10.5v4.4h-18.9l-.1.2c.1 2.1.8 3.9 1.9 5.2s2.9 2 5.3 2c1.9 0 3.5-.2 4.9-.6 1.3-.4 2.7-1 4.1-1.8l2.3 5.3c-1.3 1-3 1.9-5.2 2.6s-4.6 1-7.1 1zm-.55-26.3c-1.7 0-3 .58-3.9 1.76-.9 1.18-1.5 2.75-1.7 4.7l.1.15h10.5v-.65c0-1.85-.4-3.3-1.1-4.38-.7-1.06-2-1.6-3.7-1.6zm68.3 25.68h-8.5v-17.72h-17.3v17.72h-8.5v-42.65h8.6V539h17.4v-18.35h8.6v42.65zm25.9 0c-.3-.72-.6-1.48-.8-2.28-.2-.8-.4-1.62-.5-2.46-.8 1.54-2 2.82-3.5 3.83-1.4 1-3.1 1.5-5.1 1.5-3.3 0-5.9-.9-7.7-2.6-1.8-1.7-2.7-4.1-2.7-7 0-3.1 1.2-5.5 3.6-7.2 2.4-1.7 5.9-2.6 10.5-2.6h4.8V542c0-1.5-.4-2.7-1.2-3.53-.8-.84-2-1.26-3.5-1.26-1.4 0-2.4.4-3.2 1s-1.1 1.6-1.1 2.8h-8.2l-.1-.2c-.1-2.6 1.1-4.9 3.5-6.9 2.5-1.9 5.7-2.9 9.7-2.9 3.8 0 6.9 1 9.3 2.9 2.4 1.9 3.6 4.7 3.6 8.2v13.1c0 1.5.1 2.9.3 4.2.3 1.3.6 2.6 1.1 3.9h-8.5zm-7.8-5.7c1.5 0 2.8-.38 4-1.12 1.2-.75 2-1.6 2.4-2.58v-4.48h-4.8c-1.8 0-3.2.45-4.1 1.35-.9.9-1.3 2-1.3 3.3 0 1.08.4 1.94 1.1 2.57.7.63 1.7.95 2.9.95zm32.4-6.1l.6 2.93h.2l.6-2.93 5.2-19.9h9l-10.8 31.7h-8.1l-10.8-31.7h9l5.3 19.9zm35.9-12.54l-3.1-.1c-1.2 0-2.3.27-3.1.8s-1.4 1.27-1.8 2.23v21.4h-8.5v-31.7h8l.4 4.7c.8-1.7 1.7-3 2.9-3.9 1.2-1 2.6-1.4 4.1-1.4.5 0 .9 0 1.2.1l1.1.2-.9 7.6zm17.6 24.96c-4.7 0-8.4-1.45-11-4.35s-4-6.64-4-11.2v-1.18c0-4.8 1.3-8.7 3.9-11.7 2.6-3.1 6.2-4.6 10.7-4.5 4.3 0 7.6 1.3 9.8 3.9s3.4 6.1 3.4 10.5v4.4h-18.9v.2c.1 2.1.8 3.9 2 5.2s3 2 5.3 2c2 0 3.6-.2 4.9-.6 1.4-.4 2.7-1 4.2-1.8l2.3 5.3c-1.2 1-2.9 1.9-5.1 2.6s-4.5 1-7.1 1zm-.5-26.3c-1.7 0-3 .58-3.9 1.76-.9 1.18-1.5 2.75-1.7 4.7l.1.15h10.4v-.65c0-1.85-.4-3.3-1.1-4.38-.7-1.06-2-1.6-3.7-1.6zm-242.6 208.13l.1.17c.1 4.55-1.3 8.12-4.1 10.7s-6.7 3.86-11.8 3.86c-5.1 0-9.2-1.64-12.4-4.94s-4.7-7.54-4.7-12.75v-8.5c0-5.2 1.6-9.5 4.6-12.8s7.1-5 12.1-5c5.2 0 9.3 1.2 12.2 3.8s4.4 6.1 4.3 10.7v.1h-8.3c0-2.8-.6-4.8-2-6.1s-3.3-2-6.1-2c-2.5 0-4.5 1-6 3.1s-2.1 4.7-2.1 8v8.5c0 3.3.8 5.9 2.3 8s3.6 3.1 6.3 3.1c2.6 0 4.5-.7 5.7-2s1.9-3.4 1.9-6.2h8.3zm24.3 14.12c-.3-.73-.6-1.5-.8-2.3s-.4-1.6-.5-2.45c-.8 1.54-2 2.82-3.4 3.84s-3.1 1.52-5.1 1.52c-3.3 0-5.8-.85-7.6-2.56s-2.7-4.04-2.7-7c0-3.1 1.2-5.5 3.6-7.2s5.9-2.57 10.5-2.57h4.8v-2.52c0-1.53-.4-2.7-1.2-3.55s-2-1.26-3.5-1.26c-1.4 0-2.5.34-3.2 1s-1.1 1.6-1.1 2.78h-8.3v-.17c-.1-2.68 1.1-5 3.5-6.93s5.7-2.92 9.7-2.92c3.8 0 6.9.96 9.3 2.87s3.6 4.66 3.6 8.24v13c0 1.5.1 2.9.4 4.2s.6 2.6 1.1 3.9h-8.5zm-7.8-5.72c1.5 0 2.8-.37 4-1.1s2-1.6 2.4-2.6V746h-4.8c-1.8 0-3.2.45-4.1 1.35s-1.4 2-1.4 3.3c0 1.08.4 1.94 1.1 2.57s1.7.95 2.9.95zm35.1 6.33c-4.7 0-8.4-1.45-11.1-4.35s-4-6.64-4-11.2v-1.18c0-4.74 1.3-8.63 3.9-11.66s6.1-4.6 10.6-4.6c4.3 0 7.6 1.3 9.8 3.9s3.5 6.1 3.5 10.5v4.4H1374l-.1.1c.14 2.2.8 3.9 2 5.3s2.92 2 5.24 2c1.9 0 3.53-.2 4.87-.6s2.8-1 4.2-1.8l2.4 5.3c-1.2 1-3 1.9-5.1 2.6s-4.5 1-7.1 1zm-.5-26.3c-1.7 0-3 .6-3.9 1.77s-1.5 2.74-1.7 4.7l.1.14h10.4v-.7c0-1.9-.4-3.3-1.1-4.4s-2-1.6-3.7-1.6zm26.1-6l.4 4.53c1.1-1.6 2.4-2.8 3.9-3.7s3.3-1.3 5.2-1.3c3.2 0 5.7 1.1 7.5 3.1s2.7 5.3 2.7 9.8V760h-8.6v-19.4c0-2.27-.4-3.88-1.2-4.83s-1.9-1.4-3.5-1.4c-1.3 0-2.4.23-3.4.7s-1.7 1.15-2.4 2V760h-8.5v-31.7h8zm531.1 211.45H1921v12.18h18.8v6.6h-27.37v-42.6h27.3v6.6H1921V933h15.8v6.6zm-9-35.92h9.6l.1.2-8.1 7.6h-7.3l5.8-7.8zm28.1 42.9l.6 3h.2l.6-2.9 5.2-19.9h9l-10.8 31.7h-8.1l-10.8-31.7h9l5.3 19.9zm35.9-12.5l-3.1-.1c-1.3 0-2.3.3-3.1.8s-1.4 1.3-1.9 2.3v21.4h-8.5v-31.7h8l.4 4.7c.8-1.6 1.7-2.9 2.9-3.9s2.6-1.4 4.1-1.4c.5 0 .9.1 1.2.1s.8.2 1.1.3l-.9 7.6zm17.6 25c-4.7 0-8.4-1.4-11.1-4.3s-3.9-6.6-3.9-11.2v-1.2c0-4.7 1.3-8.6 3.9-11.6s6.1-4.5 10.6-4.5c4.3 0 7.6 1.3 9.8 3.9s3.4 6.2 3.4 10.6v4.4h-19l-.1.2c.2 2.2.8 4 2 5.3s2.9 2.1 5.3 2.1c1.9 0 3.5-.2 4.9-.6s2.7-.9 4.1-1.8l2.3 5.3c-1.3 1.1-3 1.9-5.1 2.6s-4.6 1.1-7.1 1.1zm-.5-26.3c-1.7 0-3 .6-4 1.8s-1.5 2.8-1.7 4.7l.1.2h10.4v-.6c0-1.8-.4-3.3-1.1-4.4s-1.9-1.6-3.6-1.6zm37.6 21c-1 1.7-2.2 3-3.7 3.9s-3.3 1.4-5.2 1.4c-3.3 0-5.9-1.1-7.8-3.4s-2.8-5.8-2.8-10.5v-18.4h8.6v18.5c0 2.8.4 4.7 1.2 5.7s1.9 1.6 3.5 1.6c1.4 0 2.5-.2 3.5-.6s1.8-1.1 2.4-1.9V927h8.6v31.7h-7.1l-.9-4.7zm26.4-16.9h.2l4.9-10h9.7l-9.5 15.7 9.9 16.1h-9.7l-5.2-10.5-5.1 10.5h-9.7l9.9-16-9.6-15.6h9.6l4.8 10.1zm-286.2-639.6v-42.7h14.9c5.2 0 9.5 1.7 12.9 5 3.4 3.4 5.1 7.6 5.1 12.8v7.1c0 5.3-1.7 9.5-5.1 12.8s-7.6 5-12.8 5h-14.9zm8.6-36v29.5h6.3c2.8 0 5.1-1 6.8-3.1 1.7-2.1 2.6-4.8 2.6-8.1v-7.1c0-3.3-.8-6-2.6-8.1-1.7-2.1-3.9-3.2-6.8-3.2h-6.3zm39.5-3.2h-8.6v-6.4h8.6v6.4zm0 39.3h-8.6v-31.7h8.6v31.7zm20.8.6c-4.7 0-8.4-1.4-11-4.3s-4-6.6-4-11.2v-1.1c0-4.8 1.3-8.6 3.9-11.7 2.6-3.1 6.1-4.6 10.7-4.5 4.3 0 7.5 1.3 9.8 3.9s3.4 6.1 3.4 10.5v4.4h-19l-.1.2c.1 2.2.8 3.9 2 5.3s3 2 5.3 2c2 0 3.6-.2 4.9-.6 1.4-.4 2.7-1 4.2-1.8l2.3 5.3c-1.3 1-3 1.9-5.2 2.6s-4.6 1-7.1 1zm-.5-26.3c-1.7 0-3 .6-3.9 1.8-.9 1.2-1.5 2.8-1.7 4.7l.1.2h10.5v-.6c0-1.8-.3-3.3-1.1-4.3-.7-1-2-1.6-3.7-1.6zm46.8 10.7c0 4.7-1.1 8.5-3.2 11.3-2.2 2.9-5.2 4.3-9.1 4.3-1.6 0-3.1-.3-4.4-.9s-2.4-1.5-3.3-2.7v15.2h-8.5v-43.9h7.7l.5 3.8c1-1.4 2.1-2.5 3.4-3.2 1.3-.8 2.9-1.1 4.6-1.1 4 0 7 1.5 9.2 4.6 2.2 3 3.3 7.1 3.3 12.1v.6zm-8.5-.6c0-3-.5-5.4-1.5-7.3-1-1.8-2.5-2.8-4.5-2.8-1.3 0-2.4.3-3.3.8s-1.6 1.3-2.1 2.3v13.9c.6.9 1.3 1.6 2.2 2.1s2 .7 3.3.7c2.1 0 3.6-.8 4.5-2.4.9-1.6 1.4-3.8 1.4-6.6v-.6zm42.4.6c0 4.7-1.1 8.5-3.2 11.3-2.1 2.9-5.2 4.3-9 4.3-1.6 0-3.1-.3-4.4-.9s-2.4-1.5-3.3-2.7v15.2h-8.5v-43.9h7.7l.5 3.8c1-1.4 2.1-2.5 3.4-3.2 1.3-.8 2.9-1.1 4.6-1.1 3.9 0 6.9 1.5 9.1 4.6 2.2 3 3.2 7.1 3.2 12.1v.6zm-8.5-.6c0-3-.5-5.4-1.5-7.3-1-1.8-2.5-2.8-4.5-2.8-1.3 0-2.4.3-3.3.8s-1.6 1.3-2.2 2.3v13.9c.5.9 1.2 1.6 2.1 2.1s2 .7 3.3.7c2 0 3.5-.8 4.5-2.4.9-1.6 1.4-3.8 1.4-6.6v-.6zM1955 298c-4.74 0-8.4-1.4-11.1-4.3s-4-6.6-4-11.2v-1.1c0-4.8 1.3-8.6 3.9-11.7 2.6-3.1 6.2-4.6 10.7-4.5 4.3 0 7.6 1.3 9.8 3.9s3.4 6.1 3.4 10.5v4.4h-18.9l-.1.2c.2 2.2.8 3.9 2 5.3s3 2 5.3 2c1.9 0 3.6-.2 4.9-.6 1.4-.4 2.77-1 4.2-1.8l2.3 5.3c-1.3 1-3 1.9-5.16 2.6s-4.54 1-7.1 1zm-.57-26.3c-1.7 0-3 .6-3.96 1.8-.95 1.2-1.5 2.8-1.7 4.7l.05.2h10.4v-.6c0-1.8-.4-3.3-1.2-4.3-.8-1-2-1.6-3.7-1.6zm-638.2 993h-14l-2.8 9.2h-8.9l14.4-42.6h8.8l14.4 42.7h-8.9l-2.9-9.2zm-11.7-6.7h9.6l-4.7-15h-.13l-4.75 15zm36 15.9h-8.57V1228h8.6v45.7zm20.76.6c-4.7 0-8.4-1.4-11.1-4.3s-4-6.6-4-11.2v-1.2c0-4.7 1.3-8.6 3.8-11.6s6.1-4.5 10.6-4.5c4.2 0 7.5 1.3 9.8 3.9s3.4 6.1 3.4 10.6v4.4H1355l-.1.2c.15 2.2.8 3.9 2 5.3s2.93 2 5.25 2c1.9 0 3.55-.2 4.9-.6s2.7-.9 4.14-1.7l2.3 5.3c-1.3 1.1-3 1.9-5.2 2.6s-4.6 1.1-7.1 1.1zm-.5-26.3c-1.7 0-3.1.6-4 1.8s-1.5 2.8-1.7 4.7v.2h10.5v-.6c0-1.8-.4-3.3-1.1-4.4s-2-1.6-3.7-1.6zm26-6l.3 4.6c1.1-1.6 2.4-2.8 3.9-3.7s3.3-1.3 5.2-1.3c3.2 0 5.7 1.1 7.5 3.1s2.7 5.4 2.7 9.8v19.4h-8.6v-19.4c0-2.2-.4-3.8-1.2-4.8s-2-1.4-3.5-1.4c-1.3 0-2.4.3-3.4.7s-1.7 1.2-2.4 2v23h-8.5v-32h8zm39.2 25.8c1.5 0 2.7-.4 3.6-1.3s1.4-2.1 1.4-3.5h7.8l.1.2c.1 3.2-1.1 5.9-3.5 8.1s-5.5 3.3-9.2 3.3c-4.7 0-8.3-1.5-10.8-4.4s-3.9-6.8-3.9-11.5v-.8c0-4.7 1.2-8.5 3.8-11.5s6.1-4.6 10.8-4.6c3.9 0 7 1.2 9.4 3.4s3.5 5.2 3.4 8.8l-.1.2h-7.8c0-1.6-.5-3-1.3-4.1s-2.1-1.6-3.6-1.6c-2.3 0-3.8.9-4.7 2.7s-1.4 4-1.4 6.8v.9c0 2.8.4 5.1 1.4 6.8s2.5 2.6 4.7 2.6zm3 5.9l-.4 1.7c1.3.2 2.3.7 3.1 1.5s1.3 2 1.3 3.6c0 2.1-.9 3.8-2.6 5s-4.3 1.9-7.6 1.9l-.2-4.7c1 0 1.8-.2 2.4-.6s.9-1 .9-1.8-.3-1.3-.9-1.7-1.7-.5-3.2-.6l.9-4.1h6.4zm13.3-16c0-4.7 1.3-8.6 3.9-11.6s6.3-4.5 10.9-4.5c4.7 0 8.3 1.6 11 4.6s4 6.9 4 11.7v.6c0 4.8-1.3 8.7-4 11.7s-6.3 4.5-11 4.5-8.4-1.5-11-4.5-4-6.8-4-11.6v-.6zm8.5.6c0 2.9.5 5.2 1.6 7s2.6 2.7 4.9 2.7c2.2 0 3.8-.9 4.8-2.6s1.5-4 1.5-6.9v-.6c0-2.8-.5-5.1-1.6-6.9s-2.7-2.6-4.9-2.6-3.9.9-4.9 2.7-1.6 4.1-1.6 6.9v.6zm34.5-16.1l.4 4.6c1-1.6 2.3-2.8 3.9-3.7s3.3-1.3 5.2-1.3c3.2 0 5.7 1.1 7.5 3.1s2.7 5.4 2.7 9.8v19.4h-8.6v-19.4c0-2.2-.4-3.8-1.2-4.8s-2-1.4-3.6-1.4c-1.3 0-2.4.3-3.4.7s-1.8 1.2-2.4 2v22.9h-8.7v-32h7.9zm-664-154.4h.2l10.9-31.4h11.1v42.6H835V1070h-.2l-10.6 29.15h-5.8l-10.57-29.2h-.2v29.1h-8.5v-42.64h11.2l10.9 31.5zm28.2-4.9c0-4.7 1.3-8.6 3.9-11.6s6.3-4.53 10.9-4.53c4.7 0 8.3 1.5 11 4.5 2.7 3.04 4 6.9 4 11.66v.6c0 4.75-1.3 8.6-3.9 11.6-2.6 3-6.3 4.5-10.9 4.5-4.7 0-8.3-1.5-11-4.5-2.6-3-3.9-6.85-3.9-11.6v-.6zm8.5.6c0 2.9.5 5.2 1.5 7 1 1.73 2.6 2.6 4.9 2.6 2.2 0 3.8-.9 4.8-2.7s1.5-4.05 1.5-6.9v-.6c0-2.86-.5-5.16-1.5-6.9-1.1-1.8-2.7-2.7-4.9-2.7s-3.8.9-4.9 2.7-1.6 4.1-1.6 6.9v.6zm34.5-16.14l.4 4.56c1-1.6 2.3-2.9 3.9-3.8 1.5-.9 3.2-1.4 5.2-1.4 3.2 0 5.7 1.06 7.5 3.1 1.8 2.08 2.7 5.3 2.7 9.8v19.4h-8.6v-19.4c0-2.3-.4-3.9-1.2-4.8s-2-1.46-3.6-1.46c-1.3 0-2.4.25-3.4.7s-1.7 1.16-2.4 2v22.9h-8.5v-31.7h8zm36.3-7.74v7.77h5.4v6h-5.4v16.1c0 1.2.2 2.1.7 2.6s1.2.8 2 .8c.5 0 .8 0 1.2-.1l1.2-.3.7 6.1c-.8.3-1.7.5-2.5.6s-1.7.2-2.6.2c-2.9 0-5.2-.8-6.8-2.4-1.6-1.6-2.4-4.2-2.4-7.7v-16.2h-4.6v-6h4.7v-7.8h8.5zm48.5 28.34c0-1.65-.6-2.97-1.7-3.97s-3.2-2-6.1-2.8c-4.9-1.5-8.6-3.3-11.2-5.3s-3.8-4.8-3.8-8.3c0-3.5 1.4-6.4 4.3-8.6s6.5-3.4 11-3.4c4.8 0 8.6 1.2 11.4 3.6 2.9 2.4 4.3 5.5 4.2 9.3v.2H977c0-2.2-.64-3.8-1.93-5s-3.1-1.7-5.42-1.7c-2.1 0-3.74.5-4.9 1.5-1.14 1-1.72 2.3-1.72 3.9 0 1.4.62 2.6 1.87 3.5 1.27.9 3.43 1.9 6.5 3 4.7 1.3 8.26 3 10.7 5.2s3.7 4.9 3.7 8.4c0 3.6-1.4 6.5-4.26 8.6-2.86 2.1-6.62 3.2-11.3 3.2-4.6 0-8.54-1.2-11.83-3.5-3.3-2.3-4.9-5.7-4.8-10.3l.1-.2h8.3c0 2.5.8 4.4 2.2 5.6 1.5 1.2 3.5 1.8 6.1 1.8 2.3 0 4.1-.5 5.3-1.5s1.8-2.3 1.8-3.9zm32.9 11.1c-.3-.7-.6-1.5-.8-2.3-.3-.8-.4-1.6-.5-2.43-.9 1.5-2.1 2.8-3.5 3.8-1.5 1-3.2 1.5-5.2 1.5-3.3 0-5.8-.85-7.6-2.56-1.8-1.7-2.7-4-2.7-6.97 0-3.1 1.2-5.52 3.6-7.23 2.4-1.7 5.9-2.58 10.5-2.58h4.9v-2.5c0-1.6-.4-2.7-1.2-3.6-.8-.9-2-1.3-3.6-1.3-1.4 0-2.5.3-3.2 1-.8.6-1.1 1.6-1.1 2.7h-8.2l-.1-.2c-.2-2.7 1-5 3.5-7 2.4-2 5.7-2.9 9.7-2.9 3.8 0 6.9.9 9.2 2.8s3.5 4.6 3.5 8.2v13.1c0 1.4.1 2.8.4 4.1.2 1.3.6 2.6 1 3.9h-8.5zm-7.9-5.7c1.4 0 2.8-.4 3.9-1.1s2-1.6 2.4-2.53v-4.46h-4.8c-1.9 0-3.2.4-4.2 1.3-.9.9-1.4 2-1.4 3.3 0 1.1.4 1.94 1.1 2.6.7.63 1.7.95 2.9.95zm30.3-33.6h-8.6v-6.4h8.5v6.4zm0 39.3h-8.6v-31.7h8.5v31.7zm14.8-31.7l.4 4.55c1-1.6 2.3-2.9 3.8-3.8 1.5-.9 3.3-1.4 5.2-1.4 3.2 0 5.7 1.1 7.5 3.1 1.8 2.1 2.7 5.3 2.7 9.8v19.4h-8.6v-19.4c0-2.3-.4-3.9-1.2-4.8s-2-1.4-3.6-1.4c-1.3 0-2.4.3-3.4.7s-1.8 1.2-2.4 2v22.9h-8.6v-31.7h8zm36.3-7.75v7.8h5.3v6h-5.4v16.2c0 1.2.3 2.1.8 2.6.5.6 1.2.8 2 .8h1.1l1.1-.3.7 6.2c-.9.3-1.7.5-2.5.7-.8.2-1.7.2-2.7.2-3 0-5.2-.8-6.8-2.4-1.6-1.6-2.4-4.2-2.4-7.7v-16.2h-4.6v-6h4.6v-7.8h8.5zm28.9 24.5h-17.3v-6.6h17.2v6.6zm30.5 3.7h.2l10.9-31.4h11.1v42.6h-8.6V1070h-.2l-10.6 29.17h-5.8l-10.6-29.2-.2.03v29.1h-8.5v-42.65h11.2l10.8 31.43zm38.5-28h-8.6v-6.4h8.5v6.4zm0 39.3h-8.6v-31.7h8.5v31.7zm20.3-5.9c1.4 0 2.6-.4 3.5-1.3s1.3-2.1 1.3-3.6h7.8v.2c0 3.2-1.2 5.9-3.6 8.1s-5.5 3.3-9.2 3.3c-4.7 0-8.3-1.5-10.9-4.5-2.6-3-3.9-6.8-3.9-11.5v-.8c0-4.6 1.3-8.5 3.8-11.5s6.2-4.5 10.8-4.5c3.9 0 7 1.1 9.4 3.4 2.4 2.2 3.5 5.2 3.5 8.8v.2h-7.8c0-1.7-.4-3-1.3-4.1-.8-1.1-2-1.6-3.6-1.6-2.2 0-3.8.8-4.7 2.6-.9 1.8-1.4 4-1.4 6.8v.9c0 2.8.5 5.1 1.4 6.8.9 1.8 2.5 2.6 4.8 2.6zm26-21.7c1-1.5 2.2-2.6 3.6-3.4s3-1.2 4.8-1.2c3.3 0 5.9 1.1 7.8 3.3s2.8 5.6 2.8 10.2v18.8h-8.6v-18.8c0-2.4-.4-4.2-1.2-5.2s-2-1.5-3.6-1.5c-1.4 0-2.5.2-3.5.6s-1.8 1-2.4 1.8v23.2h-8.6v-45.7h8.6v18zm39.2 28.3c-4.8 0-8.5-1.5-11.1-4.4s-4-6.6-4-11.2v-1.2c0-4.7 1.3-8.6 3.8-11.6s6.1-4.5 10.6-4.5c4.2 0 7.5 1.3 9.8 3.9s3.4 6.2 3.4 10.6v4.4H1261l-.1.2c.13 2.1.8 3.9 2 5.2s2.9 2.1 5.23 2.1c1.9 0 3.52-.2 4.86-.6s2.7-1 4.1-1.8l2.3 5.3c-1.3 1.1-3 1.9-5.2 2.6s-4.6 1.1-7.1 1.1zm-.6-26.3c-1.7 0-3.1.6-4 1.7s-1.5 2.8-1.7 4.7v.2h10.4v-.6c0-1.8-.4-3.3-1.1-4.3s-1.9-1.6-3.6-1.6zm27.2 25.6h-8.6v-45.7h8.5v45.7zm-473-656.4v.2c.1 4.6-1.3 8.1-4.2 10.7-2.9 2.6-6.8 3.9-11.8 3.9-5.2 0-9.3-1.6-12.4-4.9-3.2-3.3-4.8-7.6-4.8-12.8v-8.5c0-5.2 1.5-9.5 4.6-12.8 3-3.3 7.1-5 12-5 5.2 0 9.2 1.2 12.2 3.8 2.9 2.5 4.3 6.1 4.2 10.7l-.03.2h-8.3c0-2.8-.64-4.8-1.96-6.1-1.3-1.4-3.36-2-6.1-2-2.57 0-4.57 1-6 3.1-1.44 2-2.16 4.7-2.16 7.9v8.5c0 3.3.8 5.9 2.3 8 1.5 2 3.6 3.1 6.3 3.1 2.6 0 4.5-.7 5.8-2 1.3-1.4 1.9-3.4 1.9-6.2h8.3zm13.9-13.5c1-1.4 2.2-2.5 3.6-3.4 1.4-.8 3-1.2 4.8-1.2 3.3 0 5.9 1.1 7.8 3.3 1.8 2.2 2.8 5.6 2.8 10.2V457H845v-18.85c0-2.46-.4-4.2-1.1-5.23s-2-1.54-3.5-1.54c-1.3 0-2.4.2-3.4.63-1 .5-1.7 1.1-2.3 1.8v23.3h-8.5v-45.7h8.6v18zm39.2 28.3c-4.8 0-8.4-1.4-11.1-4.3-2.7-2.9-4-6.6-4-11.2V441c0-4.74 1.2-8.6 3.8-11.65 2.5-3.03 6.1-4.53 10.6-4.5 4.2 0 7.5 1.3 9.8 3.9 2.2 2.6 3.4 6.1 3.4 10.53v4.43h-18.9l-.1.2c.1 2.2.8 3.9 1.9 5.3 1.2 1.4 2.9 2.1 5.2 2.1 1.9 0 3.5-.2 4.9-.6 1.3-.4 2.7-1 4.1-1.8l2.3 5.2c-1.3 1-3 1.9-5.2 2.6s-4.6 1-7.1 1zm-.6-26.3c-1.8 0-3.1.6-4 1.8-1 1.1-1.5 2.7-1.7 4.7v.1H878v-.7c0-1.9-.4-3.4-1.2-4.4-.8-1.1-2-1.6-3.7-1.6zm34.8 1.4l-3.2-.1c-1.3 0-2.3.3-3.2.8s-1.5 1.3-1.9 2.3V457h-8.6v-31.68h7.9l.4 4.68c.7-1.66 1.7-2.95 2.8-3.88 1.2-.93 2.5-1.4 4.1-1.4.4 0 .8.04 1.2.1.4.08.7.16 1.1.26l-.9 7.6zm33 9.4c0 4.8-1.1 8.5-3.2 11.4s-5.2 4.3-9.2 4.3c-1.9 0-3.5-.4-4.9-1.1s-2.6-1.9-3.5-3.4l-.7 4h-7.2v-45.7h8.5V429c.9-1.2 2-2.2 3.3-2.9 1.3-.7 2.7-1 4.4-1 4 0 7.1 1.5 9.2 4.6 2.1 3.1 3.1 7.1 3.1 12.2v.6zm-8.6-.6c0-3.1-.5-5.5-1.4-7.3-.9-1.9-2.5-2.8-4.6-2.8-1.4 0-2.5.3-3.4.8-.9.5-1.7 1.3-2.2 2.4V448c.5.97 1.2 1.7 2.2 2.2.9.5 2 .77 3.4.77 2.2 0 3.7-.78 4.6-2.33s1.3-3.75 1.3-6.6v-.62zm12.5-.5c0-4.7 1.3-8.6 3.9-11.6s6.3-4.5 11-4.5 8.3 1.5 11 4.5c2.6 3 4 6.9 4 11.7v.6c0 4.7-1.4 8.6-4 11.6-2.7 3-6.3 4.5-11 4.5s-8.4-1.5-11-4.5c-2.7-3-4-6.9-4-11.7v-.7zm8.5.6c0 2.8.5 5.2 1.5 6.9 1 1.7 2.6 2.6 4.9 2.6 2.2 0 3.8-.9 4.8-2.7s1.5-4.1 1.5-7v-.7c0-2.8-.5-5.1-1.6-6.9-1.1-1.8-2.7-2.7-4.9-2.7s-3.8.9-4.9 2.6-1.6 4.1-1.6 6.9v.6zm46.1 10.8c-1 1.7-2.2 3-3.8 3.9-1.5.9-3.3 1.4-5.3 1.4-3.4 0-6-1.2-7.9-3.4-1.9-2.3-2.8-5.8-2.8-10.6v-18.3h8.5v18.4c0 2.8.4 4.7 1.1 5.7.7 1 1.9 1.5 3.5 1.5 1.3 0 2.5-.2 3.5-.7.9-.4 1.7-1.1 2.4-1.9v-23.1h8.5V457h-7.1l-.9-4.7zm31.1-19.7l-3.2-.1c-1.3 0-2.3.2-3.2.8s-1.5 1.2-1.9 2.2V457h-8.5v-31.68h7.9l.4 4.68c.7-1.66 1.7-2.95 2.9-3.88 1.1-.93 2.5-1.4 4-1.4.4 0 .8.04 1.2.1l1.1.26-1 7.6zm2.6 8.7c0-5 1.1-9.1 3.2-12.1 2.2-3.1 5.2-4.6 9.1-4.6 1.8 0 3.3.4 4.7 1.2 1.3.8 2.5 1.9 3.4 3.4l.7-4.1h7.3v31.5c0 4.1-1.4 7.3-4.1 9.5s-6.5 3.4-11.3 3.4c-1.6 0-3.3-.3-5.1-.7-1.8-.5-3.4-1.1-5-1.8l1.5-6.4c1.3.6 2.6 1.1 4 1.4 1.4.3 2.9.4 4.5.4 2.4 0 4.1-.5 5.2-1.5 1.1-1 1.6-2.5 1.6-4.6V454c-.9 1.2-2 2.1-3.3 2.7-1.3.63-2.7.94-4.4.94-3.9 0-6.9-1.43-9.1-4.28-2.2-2.85-3.3-6.62-3.3-11.3v-.62zm8.5.6c0 2.8.5 4.9 1.4 6.5.9 1.5 2.4 2.3 4.5 2.3 1.3 0 2.4-.3 3.3-.7.9-.5 1.6-1.2 2.2-2.1v-13.7c-.6-1-1.3-1.8-2.2-2.3s-2-.8-3.3-.8c-2.1 0-3.6.9-4.6 2.8-1 1.8-1.5 4.2-1.5 7.2v.6zm44.8 0h-17.3v-6.6h17.3v6.6zm43-2.6c0 5.2-1.7 9.6-5 13-3.3 3.4-7.6 5.1-12.9 5.1-5.3 0-9.6-1.7-12.8-5.1-3.3-3.4-4.9-7.8-4.9-13v-7.7c0-5.3 1.6-9.6 4.9-13 3.2-3.4 7.5-5.2 12.8-5.2 5.3 0 9.6 1.7 12.9 5.1 3.3 3.4 5 7.7 5 12.9v7.7zm-8.5-7.8c0-3.4-.8-6.1-2.5-8.2-1.7-2.2-4-3.2-6.9-3.2-2.9 0-5.2 1-6.8 3.2-1.6 2.1-2.5 4.8-2.5 8.1v7.7c0 3.4.8 6.1 2.4 8.2 1.6 2.1 3.8 3.2 6.8 3.2s5.2-1.1 6.8-3.2c1.6-2.1 2.4-4.9 2.4-8.2v-7.8zm27.9 19.2c1.5 0 2.6-.5 3.5-1.4.8-.9 1.3-2.1 1.3-3.6h7.8v.1c.1 3.2-1.1 5.9-3.6 8-2.5 2.1-5.5 3.2-9.1 3.2-4.7 0-8.3-1.5-10.9-4.5s-3.9-6.9-3.9-11.5v-.9c0-4.7 1.2-8.5 3.8-11.5s6.1-4.5 10.8-4.5c3.9 0 7 1.1 9.3 3.3 2.4 2.2 3.5 5.1 3.4 8.8l-.1.1h-7.8c0-1.7-.5-3-1.3-4.1-.9-1.1-2.1-1.7-3.6-1.7-2.3 0-3.8.9-4.7 2.6-1 1.7-1.4 4-1.4 6.8v.9c0 2.8.4 5.1 1.4 6.8.9 1.7 2.5 2.6 4.7 2.6zm27.9-33.5v7.8h5.3v6h-5.3v16.1c0 1.2.2 2.1.7 2.6.5.5 1.2.8 2 .8.5 0 .9 0 1.2-.1l1.2-.3.7 6.1c-.9.3-1.7.5-2.5.6s-1.7.2-2.7.2c-2.9 0-5.2-.8-6.8-2.4-1.6-1.6-2.4-4.2-2.4-7.7v-16h-4.6v-6h4.6v-7.8h8.5zm24.3 40c-4.7 0-8.4-1.5-11.1-4.4-2.7-2.9-4-6.7-4-11.2v-1.2c0-4.8 1.3-8.7 3.9-11.7 2.6-3.1 6.1-4.6 10.6-4.5 4.2 0 7.5 1.3 9.8 3.9 2.3 2.6 3.4 6.1 3.4 10.5v4.4H1195l-.1.1c.1 2.1.8 3.9 2 5.2 1.14 1.4 2.9 2.1 5.2 2.1 1.9 0 3.5-.2 4.9-.6 1.34-.4 2.7-1 4.2-1.8l2.3 5.3c-1.3 1-3 1.9-5.2 2.6s-4.5 1-7.1 1zm-.6-26.3c-1.7 0-3 .6-4 1.8-1 1.1-1.5 2.7-1.7 4.7v.1h10.5v-.6c0-1.9-.4-3.4-1.1-4.4-.8-1.1-2-1.6-3.7-1.6zm29.3 13.9l.5 2.9h.1l.6-2.9 5.2-19.9h8.9L1235 457h-8.15l-10.8-31.7h8.94l5.3 19.9zm28.2-27.5h-8.6V411h8.5v6.4zm0 39.3h-8.6V425h8.5v32zm16 0h-8.6V411h8.5v46zm16 0h-8.5V411h8.6v46zm20.8.6c-4.8 0-8.4-1.5-11.1-4.4s-4-6.7-4-11.2v-1.2c0-4.8 1.3-8.7 3.9-11.7 2.6-3 6.1-4.5 10.6-4.5 4.2 0 7.5 1.3 9.8 3.9s3.4 6.1 3.4 10.6v4.4H1305l-.1.1c.17 2.1.8 3.9 2 5.2s2.94 2 5.27 2c1.9 0 3.5-.2 4.9-.6 1.3-.4 2.7-1 4.1-1.8l2.32 5.3c-1.3 1-3 1.9-5.2 2.6s-4.6 1-7.1 1zm-.6-26.3c-1.7 0-3.1.6-4 1.7-.9 1.2-1.5 2.7-1.7 4.7l.1.1h10.4v-.6c0-1.9-.4-3.3-1.1-4.4-.8-1-2-1.6-3.7-1.6z"/><path d="M1100.9 285.2l24.44-7.17 2.46 8.4-35.4 10.36-15.97-54.6 10.95-3.2 13.5 46.2zm57.26-7.65c-.67-.8-1.3-1.68-1.88-2.62-.6-.94-1.1-1.93-1.54-2.97-.55 2.3-1.56 4.38-3.03 6.22-1.4 1.84-3.4 3.13-6 3.87-4.2 1.25-7.8 1.1-10.8-.4-2.9-1.52-4.9-4.16-6-7.93-1.1-3.98-.5-7.5 1.9-10.6 2.4-3.07 6.6-5.47 12.5-7.2l6.2-1.8-.9-3.2c-.5-1.96-1.5-3.32-2.8-4.1-1.3-.77-3-.87-5-.27-1.8.52-3 1.35-3.8 2.5-.7 1.14-.8 2.46-.4 3.96l-10.5 3.1-.1-.2c-1.1-3.4-.5-6.7 1.9-10.2 2.5-3.4 6.2-5.8 11.3-7.3 4.9-1.4 9.2-1.3 12.9.2 3.8 1.6 6.3 4.7 7.6 9.2l4.9 16.8c.6 1.9 1.3 3.7 2 5.3.8 1.6 1.8 3.1 2.9 4.6l-10.9 3.2zm-12.14-4.38c1.9-.56 3.46-1.53 4.68-2.92 1.22-1.4 1.92-2.8 2.1-4.2l-1.67-5.73-6.15 1.8c-2.32.67-3.9 1.76-4.76 3.26-.85 1.5-1.03 3.08-.54 4.76.4 1.37 1.16 2.34 2.3 2.9 1.1.54 2.46.6 4.04.13zm73.44-29.14l.23-.06 2.2-44.33 14.3-4.18 15.9 54.58-11 3.2-10.9-37.26-.3.03-2.6 41.3-7.5 2.2-24.5-33.4-.2.1 10.9 37.4-11 3.2-16-54.6 14.3-4.2 25.6 36.2zm65.88-3.68c-.67-.8-1.3-1.68-1.9-2.62-.58-.94-1.1-1.93-1.53-2.97-.5 2.3-1.5 4.37-3 6.2-1.5 1.85-3.5 3.15-6 3.9-4.2 1.24-7.8 1.1-10.8-.4-2.9-1.53-4.9-4.17-6-7.95-1.1-3.9-.5-7.5 1.9-10.5 2.4-3.1 6.6-5.5 12.5-7.2l6.2-1.8-.9-3.2c-.5-1.9-1.5-3.3-2.8-4-1.3-.8-3-.8-5-.3-1.8.5-3 1.4-3.7 2.5-.7 1.2-.8 2.5-.4 4l-10.5 3.1-.1-.2c-1.2-3.4-.5-6.7 1.9-10.2 2.4-3.4 6.2-5.8 11.3-7.3 4.9-1.4 9.2-1.3 12.9.3 3.7 1.6 6.3 4.7 7.6 9.2l4.9 16.8c.6 1.9 1.2 3.7 2 5.3.8 1.6 1.7 3.1 2.8 4.6l-10.9 3.2zm-12.15-4.38c1.8-.56 3.4-1.53 4.6-2.92 1.2-1.4 1.9-2.8 2.1-4.2l-1.7-5.73-6.2 1.8c-2.3.68-3.9 1.76-4.8 3.26-.9 1.5-1.1 3.08-.6 4.76.4 1.37 1.1 2.34 2.3 2.9 1.1.54 2.4.6 4 .13zm27.6-44.17l2.2 5.66c.7-2.47 1.9-4.57 3.5-6.3 1.6-1.72 3.7-2.95 6.1-3.66 4.1-1.2 7.6-.82 10.7 1.14 3 1.97 5.4 5.8 7.1 11.5l7.2 24.85-11 3.2-7.3-24.8c-.9-2.9-2-4.9-3.4-5.8-1.4-.9-3.1-1.1-5.1-.5-1.6.5-3 1.2-4 2.2-1.1 1-1.9 2.1-2.3 3.4l8.5 29.3-11 3.2-11.9-40.6 10.2-3zm59.9 18.24c1.9-.56 3.2-1.57 4-3.04.8-1.46.9-3.15.3-5.05l10-2.9.1.2c1.3 4.06.7 7.94-1.6 11.62-2.4 3.68-5.9 6.2-10.5 7.56-6 1.76-11.2 1.2-15.6-1.68s-7.5-7.3-9.3-13.28l-.3-1.13c-1.8-5.94-1.6-11.33.5-16.14 2.1-4.82 6.2-8.1 12.1-9.85 4.9-1.44 9.3-1.2 13.2.78 3.8 1.96 6.4 5.28 7.7 9.96l-.1.2-10 2.9c-.7-2.1-1.7-3.7-3.2-4.8-1.6-1.1-3.3-1.3-5.3-.7-2.9.8-4.5 2.5-5.1 5.1-.5 2.6-.3 5.7.7 9.2l.4 1.1c1.1 3.6 2.5 6.3 4.3 8.2 1.8 1.9 4.2 2.4 7.1 1.5zm25.2-37.57c.7-2.22 1.8-4.13 3.4-5.7 1.5-1.58 3.4-2.7 5.7-3.36 4.2-1.2 7.9-.8 11.2 1.4 3.2 2.1 5.7 6.1 7.4 12l7 24.1-11 3.2-7.1-24.1c-.9-3.1-2.1-5.2-3.5-6.2s-3.1-1.2-5.2-.6c-1.7.5-3.1 1.2-4.2 2.1-1.1.9-1.9 2-2.4 3.2l8.6 29.7-11 3.2-17.1-58.5 10.9-3.2 6.7 23.1zm60.8 21.53c-6.1 1.76-11.3 1.28-15.8-1.43-4.5-2.72-7.6-7-9.3-12.85l-.5-1.5c-1.8-6.07-1.6-11.53.6-16.37 2.1-4.84 6.1-8.1 11.9-9.75 5.4-1.6 10.1-1.15 14 1.33 3.9 2.5 6.6 6.55 8.3 12.2l1.6 5.66-24.2 7-.1.2c1 2.7 2.5 4.7 4.5 6 2 1.3 4.5 1.5 7.5.6 2.4-.7 4.4-1.6 6-2.6 1.5-1 3.1-2.3 4.6-3.9l5 5.8c-1.3 1.8-3.1 3.5-5.6 5.3-2.5 1.7-5.4 3-8.7 4zm-10.6-33.47c-2.2.64-3.7 1.9-4.4 3.75-.8 1.86-.9 4.08-.4 6.65l.1.17 13.3-3.9-.3-.83c-.7-2.38-1.8-4.1-3.1-5.18-1.4-1.1-3.2-1.3-5.4-.7z" fill="#97D8EB"/><path d="M1747.63 506.15h-8.52v-35.22h-8.8v-6.53l17.4-1.52v43.27zm22.74-27.7c1-1.43 2.22-2.56 3.66-3.37 1.45-.8 3.05-1.22 4.8-1.22 3.3 0 5.9 1.1 7.78 3.3s2.9 5.6 2.9 10.18v18.8h-8.5V487.3c0-2.46-.4-4.2-1.2-5.23s-1.9-1.54-3.5-1.54c-1.3 0-2.4.22-3.4.64-1 .42-1.7 1.02-2.3 1.8v23.2h-8.6v-45.7h8.6v18.02zM2006.4 431l2.45-23.84h23.8V414h-16.8l-1.17 9.97c.8-.58 1.8-1.07 3.02-1.45s2.53-.6 3.96-.63c3.96-.1 7.03 1.1 9.2 3.6 2.2 2.5 3.28 6 3.28 10.5 0 4.2-1.2 7.6-3.55 10.3-2.4 2.7-6 4-10.9 4-4 0-7.3-1.1-10.1-3.1s-4.2-5-4.1-8.6v-.2l8.2-.4c0 1.8.5 3.1 1.6 4.1s2.5 1.5 4.2 1.5c2 0 3.5-.7 4.4-2 .9-1.3 1.4-3.2 1.4-5.7s-.5-4.5-1.5-5.9c-1-1.5-2.5-2.2-4.5-2.2-1.7 0-2.9.3-3.8.9-.9.6-1.5 1.4-1.9 2.4l-7.6-.5zm62.4 18.8h-28.63v-5.58l13.2-14.95c2-2.32 3.4-4.3 4.22-5.9s1.2-3.1 1.2-4.44c0-1.75-.5-3.16-1.3-4.2s-2.2-1.6-4-1.6c-1.9 0-3.3.68-4.3 2.02s-1.6 3.06-1.6 5.13h-8.3l-.1-.17c-.1-3.7 1.1-7 3.7-9.6 2.6-2.6 6-3.9 10.4-3.9s7.7 1.1 10.2 3.4c2.4 2.3 3.6 5.3 3.6 9 0 2.6-.7 4.9-2.1 7s-3.7 5.1-7 8.8l-7.1 8.5.1.2h17.4v6.5zm28.53-31.7l.35 4.2c1.02-1.52 2.3-2.7 3.82-3.53 1.54-.83 3.3-1.24 5.32-1.24 2.03 0 3.77.45 5.22 1.35 1.44.9 2.54 2.25 3.28 4.07.97-1.7 2.24-3.03 3.8-4 1.57-.94 3.4-1.42 5.5-1.42 3.14 0 5.6 1.1 7.4 3.32 1.82 2.22 2.72 5.6 2.72 10.15v18.8h-8.55v-18.83c0-2.53-.4-4.3-1.2-5.3s-2-1.5-3.5-1.5c-1.2 0-2.3.28-3.2.8-.9.55-1.6 1.3-2.1 2.25v22.6h-8.5V431c0-2.48-.4-4.23-1.2-5.26s-2-1.52-3.5-1.52c-1.2 0-2.2.22-3.1.66s-1.6 1.06-2.2 1.86v23.1h-8.6v-31.7h7.9zm52.97-7.58h-8.56v-6.4h8.56v6.4zm0 39.3h-8.56v-31.7h8.56v31.7zm14.85-31.72l.38 4.55c1.06-1.62 2.36-2.88 3.9-3.77 1.54-.9 3.27-1.35 5.18-1.35 3.3 0 5.8 1.03 7.5 3.1 1.8 2.05 2.7 5.3 2.7 9.76v19.4h-8.5v-19.4c0-2.3-.4-3.9-1.2-4.8-.8-1-1.9-1.5-3.5-1.5-1.2 0-2.4.2-3.3.7s-1.7 1.1-2.4 1.9v22.9h-8.5V418h8zm35.55 31.7h-8.57v-7.5h8.56v7.5zm-638.4 355.34h-8.53v-35.22h-8.82v-6.53l17.34-1.6V805zm22.73-27.7c1-1.43 2.2-2.56 3.66-3.37s3-1.22 4.8-1.22c3.3 0 5.9 1.1 7.7 3.3s2.8 5.6 2.8 10.18v18.8h-8.6v-18.86c0-2.46-.4-4.2-1.2-5.23s-2-1.53-3.6-1.53c-1.3 0-2.5.3-3.5.7s-1.8 1-2.4 1.8v23.2h-8.6v-45.7h8.5v18zm54.27 27.7h-28.6v-5.6l13.2-14.94c1.98-2.32 3.38-4.3 4.2-5.9s1.25-3.1 1.25-4.44c0-1.76-.44-3.16-1.32-4.22s-2.2-1.58-3.95-1.58c-1.85 0-3.3.67-4.3 2.02s-1.53 3.06-1.53 5.13h-8.32l-.06-.1c-.1-3.8 1.15-7 3.75-9.6s6.1-3.9 10.46-3.9 7.77 1.1 10.2 3.4 3.63 5.3 3.63 9c0 2.6-.6 4.9-2 7s-3.7 5.1-7 8.8l-7 8.5.1.2h17.5v6.6zm6.46-18.8l2.46-23.86h23.8v6.86h-16.8l-1.17 9.96c.8-.6 1.8-1.07 3.02-1.45s2.53-.6 3.95-.63c3.97-.06 7.04 1.17 9.22 3.68s3.26 6.03 3.26 10.56c0 4.18-1.18 7.6-3.54 10.28s-5.98 4.02-10.84 4.02c-3.93 0-7.3-1.04-10.08-3.12s-4.14-4.94-4.04-8.57l.06-.15 8.23-.38c0 1.78.5 3.16 1.6 4.16s2.4 1.5 4.2 1.5c2 0 3.5-.67 4.4-2s1.4-3.22 1.4-5.68-.5-4.42-1.6-5.88-2.5-2.18-4.5-2.18c-1.7 0-2.9.3-3.8.9s-1.5 1.43-1.9 2.47l-7.6-.5zM1412.8 939.77h-28.64v-5.6l13.2-14.93c2-2.33 3.4-4.3 4.22-5.9s1.24-3.1 1.24-4.45c0-1.8-.44-3.2-1.3-4.3s-2.2-1.6-3.97-1.6c-1.85 0-3.3.7-4.3 2s-1.53 3-1.53 5.1h-8.32l-.06-.2c-.1-3.8 1.15-7 3.75-9.7s6-3.9 10.4-3.9 7.7 1.1 10.2 3.3 3.6 5.2 3.6 9c0 2.5-.7 4.9-2.1 7s-3.7 5-7 8.7l-7.1 8.4v.1h17.4v6.6zm14-27.67c1-1.46 2.2-2.6 3.65-3.4s3.05-1.2 4.8-1.2c3.3 0 5.9 1.1 7.78 3.28s2.83 5.6 2.83 10.18v18.8h-8.55V920.9c0-2.44-.4-4.2-1.1-5.2s-2-1.55-3.5-1.55c-1.3 0-2.4.2-3.4.63s-1.7 1.02-2.3 1.8v23.2h-8.5v-45.7h8.6v18.02zm39.2 2.6c2.02 0 3.53-.53 4.5-1.6s1.5-2.53 1.5-4.44c0-1.6-.52-2.93-1.56-3.98s-2.48-1.6-4.34-1.6c-1.56 0-2.87.5-3.94 1.45s-1.6 2.18-1.6 3.66h-8.25v-.2c-.1-3.4 1.2-6.1 3.9-8.3s6.1-3.3 10-3.3c4.4 0 7.9 1 10.5 3.1s3.9 5 3.9 8.9c0 1.9-.5 3.7-1.7 5.4s-2.6 2.9-4.6 3.8c2.3.8 4 2.1 5.2 3.8s1.8 3.8 1.8 6.2c0 3.9-1.4 7-4.2 9.2s-6.4 3.4-10.8 3.4c-3.8 0-7.2-1.1-10.2-3.2s-4.3-5.1-4.2-8.9l.1-.2h8.3c0 1.6.6 2.9 1.7 4s2.6 1.6 4.4 1.6c2 0 3.6-.6 4.8-1.7s1.8-2.6 1.8-4.4c0-2.3-.6-3.9-1.7-5s-2.8-1.6-5-1.6h-4.7v-6.4h4.7zm21.52 6.26l2.46-23.84h23.8v6.85h-16.8l-1.17 9.96c.8-.58 1.9-1.07 3.1-1.45s2.6-.6 4-.63c4-.06 7.1 1.17 9.2 3.68s3.3 6.03 3.3 10.56c0 4.1-1.2 7.6-3.5 10.2s-6 4-10.8 4c-3.9 0-7.3-1.1-10.1-3.2s-4.1-5-4-8.6l.1-.2 8.2-.4c0 1.8.6 3.2 1.6 4.1s2.5 1.5 4.3 1.5c2.1 0 3.5-.7 4.5-2s1.4-3.2 1.4-5.7-.5-4.4-1.5-5.9-2.5-2.2-4.5-2.2c-1.6 0-2.9.3-3.7.9s-1.5 1.4-1.8 2.4l-7.5-.5zm-90.7 163.67h-28.6v-5.6l13.22-14.93c1.98-2.33 3.38-4.3 4.2-5.9s1.25-3.1 1.25-4.44c0-1.76-.5-3.17-1.4-4.22s-2.2-1.58-4-1.58c-1.9 0-3.3.67-4.3 2.02s-1.5 3.05-1.5 5.12h-8.4l-.1-.17c-.1-3.8 1.1-7 3.7-9.63s6.1-3.94 10.5-3.94 7.7 1.12 10.2 3.36 3.6 5.24 3.6 9c0 2.57-.7 4.9-2 7s-3.7 5.04-7.1 8.77l-7.1 8.4v.1h17.4v6.5zm14-27.68c1-1.45 2.24-2.57 3.68-3.38s3.05-1.22 4.8-1.22c3.3 0 5.9 1.1 7.78 3.3s2.83 5.6 2.83 10.18v18.8h-8.5v-18.86c0-2.46-.4-4.2-1.2-5.23s-2-1.54-3.5-1.54c-1.3 0-2.4.2-3.4.63s-1.7 1.02-2.3 1.8v23.2h-8.5v-45.7h8.6v18.02zm39.2 2.6c2.05 0 3.56-.52 4.54-1.6s1.48-2.52 1.48-4.43c0-1.6-.52-2.93-1.55-3.98s-2.5-1.58-4.4-1.58c-1.6 0-2.9.47-4 1.43s-1.6 2.1-1.6 3.6h-8.3l-.1-.2c-.2-3.4 1.1-6.1 3.8-8.3s6-3.3 10-3.3c4.4 0 7.9 1 10.5 3.1s3.9 5 3.9 8.9c0 1.9-.6 3.7-1.7 5.3s-2.7 2.9-4.6 3.8c2.2.8 3.9 2.1 5.1 3.8s1.8 3.7 1.8 6.2c0 3.9-1.4 6.9-4.2 9.2s-6.5 3.3-10.9 3.3c-3.9 0-7.3-1.1-10.2-3.2s-4.3-5.1-4.2-8.9v-.2h8.3c0 1.6.6 2.9 1.7 4s2.6 1.6 4.4 1.6c1.9 0 3.5-.6 4.7-1.8s1.8-2.6 1.8-4.4c0-2.2-.6-3.9-1.7-5s-2.8-1.6-5-1.6h-4.7v-6.4h4.7zm21.55 6.28l2.46-23.85h23.8v6.85h-16.8l-1.17 9.96c.8-.6 1.8-1.1 3.02-1.5s2.53-.6 3.95-.7c3.97-.1 7.04 1.1 9.22 3.7s3.26 6 3.26 10.5c0 4.2-1.1 7.6-3.5 10.3s-6 4-10.8 4c-3.9 0-7.3-1.1-10.1-3.1s-4.1-5-4-8.6l.1-.2 8.3-.4c0 1.8.6 3.2 1.6 4.2s2.5 1.5 4.3 1.5c2.1 0 3.5-.7 4.5-2s1.4-3.3 1.4-5.7-.5-4.4-1.5-5.9-2.5-2.2-4.5-2.2c-1.6 0-2.9.3-3.8.9s-1.5 1.4-1.8 2.4l-7.5-.5zm268.33 149.2h-8.53v-35.2h-8.82v-6.54l17.34-1.6v43.3zm22.73-27.67c1-1.45 2.2-2.58 3.66-3.4s3-1.2 4.8-1.2c3.3 0 5.9 1.1 7.7 3.3s2.8 5.58 2.8 10.17v18.8h-8.6v-18.85c0-2.47-.4-4.2-1.2-5.23s-2-1.54-3.6-1.54c-1.3 0-2.5.3-3.5.7s-1.8 1-2.4 1.8v23.2h-8.5v-45.7h8.5v18zm50.2 11.8h4.8v6.62h-4.8v9.26h-8.54v-9.26h-17.4l-.4-5.12 17.7-28.27h8.6v26.7zm-18.56 0h10.02v-15.5l-.2-.02-.9 1.9-9 13.62zm56.66.44c0 5-1.32 8.93-3.94 11.78s-6.2 4.28-10.5 4.28c-4.4 0-7.9-1.43-10.5-4.28s-4-6.78-4-11.78v-11.75c0-4.98 1.3-8.9 3.9-11.77s6.1-4.3 10.4-4.3 7.8 1.43 10.5 4.3 3.9 6.8 3.9 11.77v11.75zm-8.53-12.63c0-2.73-.52-4.85-1.57-6.35s-2.5-2.26-4.35-2.26c-1.87 0-3.32.75-4.35 2.26s-1.54 3.62-1.54 6.36v13.44c0 2.8.5 4.94 1.5 6.43s2.5 2.24 4.4 2.24c1.8 0 3.3-.8 4.3-2.3s1.5-3.7 1.5-6.5v-13.5zm185.23-473.2l2.46-23.85h23.7v6.85H2037l-1.15 9.96c.8-.58 1.8-1.06 3.02-1.45s2.52-.6 3.94-.63c4-.05 7.1 1.17 9.2 3.68 2.2 2.5 3.3 6.03 3.3 10.56 0 4.1-1.2 7.6-3.5 10.2s-5.9 4-10.8 4c-3.9 0-7.3-1.1-10.1-3.1s-4.1-5-4-8.6l.1-.2 8.3-.4c0 1.8.5 3.2 1.6 4.1s2.5 1.5 4.2 1.5c2.1 0 3.5-.7 4.5-2s1.4-3.3 1.4-5.7-.5-4.4-1.5-5.9-2.5-2.2-4.5-2.2c-1.6 0-2.9.3-3.7.9-.9.6-1.5 1.4-1.9 2.4l-7.5-.5zm62 3.36c0 5-1.3 8.93-3.95 11.78s-6.1 4.3-10.44 4.3c-4.38 0-7.88-1.4-10.52-4.3s-3.96-6.7-3.96-11.7v-11.8c0-5 1.32-8.9 3.94-11.8s6.12-4.3 10.48-4.3c4.34 0 7.83 1.5 10.47 4.3s3.97 6.8 3.97 11.8v11.8zm-8.53-12.62c0-2.7-.53-4.8-1.57-6.3-1.05-1.5-2.5-2.2-4.35-2.2-1.88 0-3.33.8-4.35 2.3-1.03 1.5-1.54 3.7-1.54 6.4V718c0 2.8.5 4.93 1.5 6.43s2.5 2.24 4.4 2.24c1.8 0 3.3-.75 4.3-2.24s1.5-3.65 1.5-6.44v-13.5zm37.47-3.6l.35 4.2c1-1.5 2.3-2.7 3.82-3.5 1.53-.8 3.3-1.2 5.32-1.2 2.03 0 3.77.5 5.2 1.4 1.46.9 2.55 2.3 3.3 4.1.97-1.7 2.24-3 3.8-3.9 1.57-.9 3.4-1.4 5.5-1.4 3.14 0 5.6 1.1 7.4 3.3 1.82 2.2 2.72 5.6 2.72 10.2v18.8h-8.56V714c0-2.53-.4-4.3-1.17-5.3s-1.94-1.5-3.48-1.5c-1.2 0-2.26.3-3.15.8-.9.55-1.6 1.3-2.13 2.26v22.6h-8.5v-18.9c0-2.46-.4-4.2-1.2-5.24s-2-1.54-3.5-1.54c-1.2 0-2.2.28-3.1.7s-1.6 1.08-2.2 1.88v23.1h-8.6V701h7.9zm52.97-7.6h-8.56v-6.4h8.56v6.4zm0 39.3h-8.56v-31.7h8.56v31.7zm14.86-31.7l.37 4.6c1.05-1.6 2.35-2.9 3.9-3.8 1.54-.9 3.27-1.3 5.18-1.3 3.2 0 5.7 1 7.5 3.1 1.8 2.1 2.7 5.4 2.7 9.8v19.5h-8.6v-19.4c0-2.2-.38-3.8-1.17-4.8-.8-.9-1.98-1.4-3.56-1.4-1.27 0-2.4.3-3.36.8s-1.76 1.1-2.4 2v22.9h-8.54V701h7.97zm35.53 31.7h-8.56v-7.5h8.56v7.5z" fill="#079CB4"/><path fill="#DADADA" d="M315.1 43.3h102v1558.28h-102z"/><path fill="#FFF" d="M571.73 632H169.7V526.64h402.03l32 52.7"/><path d="M211.02 559.12h8.53v29.44c0 4.22-1.3 7.58-3.9 10.08-2.57 2.5-5.9 3.75-9.96 3.75-4.6 0-8.1-1.2-10.8-3.4s-3.9-5.5-3.8-9.7v-.2h8.3c0 2.2.5 3.9 1.6 5s2.6 1.6 4.5 1.6c1.5 0 2.8-.7 3.8-2s1.5-3.1 1.5-5.3V559zm29.42 43.28c-4.73 0-8.42-1.46-11.08-4.36-2.65-2.9-3.98-6.64-3.98-11.2v-1.18c0-4.74 1.3-8.63 3.86-11.66 2.58-3.03 6.13-4.53 10.64-4.5 4.26 0 7.52 1.3 9.8 3.9 2.27 2.6 3.4 6.12 3.4 10.53v4.43H234.2l-.1.17c.15 2.17.8 3.93 2 5.28 1.17 1.4 2.92 2.1 5.25 2.1 1.9 0 3.54-.2 4.87-.6 1.34-.4 2.72-1 4.15-1.8l2.3 5.3c-1.26 1.1-2.97 1.9-5.14 2.6s-4.53 1.1-7.1 1.1zm-.56-26.32c-1.72 0-3.04.6-3.97 1.77-.9 1.2-1.4 2.75-1.6 4.7l.1.15h10.5v-.64c0-1.86-.3-3.32-1.1-4.38s-2-1.6-3.7-1.6zm1.03-19.57h9.6l.1.2-8.1 7.6h-7.3l5.8-7.8zm26.4 13.6V603c0 3.7-1 6.57-2.9 8.6-1.9 2.02-4.7 3.03-8.2 3.03-.7 0-1.4-.04-2.1-.12-.6 0-1.3-.2-2-.3l.4-6.5 1.4.3c.5.1 1 .1 1.5.1 1.2 0 2.1-.4 2.7-1.2.7-.8 1-2 1-3.7v-33h8.6zm-.1-7.6h-8.6v-6.3h8.6v6.4zm26.3 34.7c-.9 1.7-2.2 3-3.7 3.9-1.5 1-3.2 1.4-5.2 1.4-3.3 0-5.9-1.1-7.8-3.4-1.8-2.2-2.8-5.8-2.8-10.5v-18.4h8.5v18.4c0 2.8.4 4.7 1.2 5.7.8 1.1 1.9 1.6 3.5 1.6 1.4 0 2.5-.2 3.5-.6 1-.5 1.8-1.1 2.4-2v-23h8.6V602h-7.1l-.9-4.7z"/><path fill="#079CB4" d="M335.1 595.83c2.1 0 3.83-.8 5.18-2.4 1.35-1.58 2.02-3.8 2.02-6.66v-2.75c-.96 1.23-2.1 2.16-3.4 2.78-1.3.63-2.7.94-4.22.94-3.96 0-7.07-1.3-9.33-3.87s-3.38-6.08-3.38-10.5c0-4.3 1.34-7.84 4-10.65 2.7-2.8 6.1-4.22 10.27-4.22 4.3 0 7.8 1.45 10.5 4.34 2.73 2.9 4.1 6.9 4.1 12v11.5c0 4.92-1.5 8.82-4.45 11.7-3 2.9-6.8 4.35-11.3 4.35-1.5 0-3.1-.2-4.6-.5-1.6-.3-3.1-.8-4.5-1.4l1.4-6.2c1.2.5 2.4.9 3.6 1.1s2.5.3 4 .3zm1.02-14.36c1.4 0 2.6-.28 3.66-.85 1.06-.56 1.9-1.33 2.52-2.28v-4.98c0-2.68-.55-4.72-1.64-6.14-1.1-1.42-2.56-2.12-4.4-2.12-1.7 0-3.1.8-4.15 2.38-1 1.6-1.5 3.55-1.5 5.88 0 2.44.5 4.4 1.5 5.9 1 1.47 2.4 2.2 4.2 2.2zm34.78-4.77c2.03 0 3.54-.53 4.52-1.58 1-1.06 1.48-2.54 1.48-4.46 0-1.6-.52-2.93-1.55-3.98-1.04-1.06-2.48-1.58-4.34-1.58-1.5 0-2.8.48-3.9 1.43-1 .96-1.6 2.18-1.6 3.67h-8.2v-.18c-.1-3.34 1.2-6.1 3.9-8.26s6.1-3.25 10-3.25c4.4 0 7.9 1.1 10.5 3.2 2.6 2.1 3.9 5.1 3.9 9 0 2-.5 3.8-1.7 5.4-1.1 1.7-2.6 2.9-4.6 3.9 2.2.9 4 2.2 5.2 3.9 1.2 1.7 1.9 3.8 1.9 6.2 0 3.9-1.4 7-4.2 9.2-2.8 2.2-6.4 3.4-10.8 3.4-3.9 0-7.3-1-10.2-3.1-2.9-2.1-4.3-5-4.2-8.9l.1-.2h8.3c0 1.6.6 3 1.7 4.1 1.1 1.1 2.6 1.7 4.4 1.7 1.9 0 3.5-.6 4.7-1.8 1.2-1.1 1.8-2.6 1.8-4.3 0-2.2-.5-3.9-1.7-5-1.1-1.1-2.7-1.6-4.9-1.6h-4.7V577h4.7zm49.54-11c-4.83 5.66-8.1 10.74-9.85 15.26s-2.7 9.7-2.7 15.54v5.28h-8.6v-5.28c0-5.93 1.1-11.35 3.2-16.24 2.1-4.9 5.3-9.74 9.5-14.55h-21.7v-6.5h30v6.6zm19.3 11c2.03 0 3.54-.53 4.53-1.58 1-1.06 1.48-2.54 1.48-4.46 0-1.6-.52-2.93-1.56-3.98-1.1-1.06-2.5-1.58-4.4-1.58-1.6 0-2.9.48-4 1.43-1.1.96-1.6 2.18-1.6 3.67H426l-.05-.18c-.14-3.34 1.15-6.1 3.85-8.26s6.03-3.25 10-3.25c4.4 0 7.9 1.1 10.5 3.2 2.6 2.1 3.9 5.1 3.9 9 0 2-.55 3.8-1.67 5.4-1.14 1.7-2.68 2.9-4.63 3.9 2.23.9 3.95 2.2 5.16 3.9 1.2 1.7 1.83 3.8 1.83 6.2 0 3.9-1.4 7-4.3 9.2-2.8 2.2-6.5 3.4-10.9 3.4-3.9 0-7.3-1-10.2-3.1-2.9-2.1-4.3-5-4.2-8.9v-.2h8.3c0 1.6.5 3 1.7 4.1 1.1 1.1 2.5 1.7 4.3 1.7 1.9 0 3.5-.6 4.7-1.8 1.2-1.1 1.8-2.6 1.8-4.3 0-2.2-.6-3.9-1.7-5s-2.8-1.6-5-1.6H435V577h4.72zm46.4 11.8H484v13.28h-8.55v-45.7H484V582h1.9l7.6-11.92h9.9l-10.32 14.44 11.72 17.26h-9.84l-8.8-13.28zm29.36-18.42l.36 4.18c1-1.52 2.3-2.7 3.82-3.53 1.53-.83 3.3-1.24 5.32-1.24 2.03 0 3.77.4 5.2 1.3 1.46.9 2.55 2.2 3.3 4 .97-1.7 2.24-3.1 3.8-4 1.56-1 3.4-1.5 5.5-1.5 3.13 0 5.6 1.1 7.4 3.3 1.8 2.2 2.72 5.6 2.72 10.1v18.8h-8.56v-18.8c0-2.6-.4-4.3-1.17-5.3-.8-1-2-1.5-3.5-1.5-1.2 0-2.3.2-3.2.8-.9.5-1.6 1.3-2.2 2.2v22.5h-8.6v-18.8c0-2.5-.4-4.3-1.2-5.3-.8-1-2-1.6-3.6-1.6-1.2 0-2.2.2-3 .7-.9.4-1.6 1-2.2 1.8v23.1h-8.6V570h7.9z"/><path fill="#FFF" d="M615.73 383.02H131.2V277.64h484.53l32 52.7"/><path d="M190 352.8h-8.54l-17.2-28.8-.17.03v28.74h-8.6V310.1h8.5l17.1 28.74.2-.03v-28.7h8.6v42.7zm16.22-39.3h-8.56v-6.4h8.55v6.4zm0 39.3h-8.56v-31.7h8.55v31.7zm14.85-31.7l.38 4.53c1.05-1.62 2.35-2.88 3.9-3.78 1.54-.9 3.27-1.35 5.18-1.35 3.2 0 5.7 1.03 7.5 3.1 1.8 2.06 2.7 5.3 2.7 9.77v19.42h-8.6v-19.4c0-2.3-.38-3.9-1.17-4.9-.8-1-1.98-1.5-3.56-1.5-1.27 0-2.4.2-3.36.7-.97.4-1.76 1.1-2.4 1.9v22.9h-8.54V321h7.97zm24.78 16.1c0-5 1.1-9.03 3.26-12.1 2.2-3.06 5.3-4.6 9.2-4.6 1.8 0 3.4.4 4.7 1.2 1.4.8 2.5 1.95 3.5 3.43l.7-4.04h7.4v31.5c0 4.1-1.3 7.3-4 9.5s-6.4 3.4-11.3 3.4c-1.6 0-3.3-.3-5.1-.7-1.8-.5-3.4-1.1-4.9-1.8l1.4-6.4c1.3.6 2.7 1.1 4.1 1.4 1.4.3 3 .5 4.6.5 2.4 0 4.1-.5 5.2-1.5 1.1-1 1.7-2.5 1.7-4.6v-2.9c-.9 1.2-2 2.1-3.3 2.7-1.3.6-2.7.9-4.4.9-3.9 0-6.9-1.4-9.1-4.3-2.1-2.9-3.2-6.7-3.2-11.3v-.6zm8.56.62c0 2.77.5 4.96 1.4 6.55 1 1.6 2.5 2.4 4.6 2.4 1.3 0 2.4-.25 3.3-.73.9-.48 1.7-1.18 2.2-2.1V330.2c-.5-.98-1.2-1.73-2.2-2.25s-2-.8-3.3-.8c-2 0-3.6.93-4.5 2.8-.9 1.84-1.4 4.26-1.4 7.25v.62zm55.2 0c0 4.73-1 8.5-3.1 11.34-2.1 2.83-5.1 4.25-9.1 4.25-1.8 0-3.4-.4-4.8-1.1s-2.5-1.9-3.5-3.4l-.7 4H281v-45.7h8.52v17.4c.92-1.2 2.02-2.2 3.3-2.9 1.28-.7 2.75-1 4.4-1 4.03 0 7.1 1.6 9.2 4.6 2.12 3.1 3.17 7.1 3.17 12.2v.7zm-8.5-.62c0-3.08-.4-5.53-1.3-7.34-.9-1.8-2.4-2.7-4.6-2.7-1.3 0-2.4.27-3.3.83-.9.5-1.6 1.3-2.1 2.3v13.4c.6.9 1.3 1.7 2.2 2.2 1 .5 2.1.7 3.4.7 2.2 0 3.8-.8 4.7-2.4s1.4-3.8 1.4-6.6v-.6zm12.5-.55c0-4.73 1.3-8.6 4-11.62s6.3-4.52 11-4.52 8.4 1.5 11 4.6c2.7 3 4 6.9 4 11.7v.6c0 4.8-1.3 8.7-4 11.7s-6.3 4.5-10.9 4.5c-4.7 0-8.3-1.5-11-4.5-2.6-3-4-6.8-4-11.6v-.6zm8.6.6c0 2.9.5 5.22 1.5 6.97s2.7 2.62 4.9 2.62 3.9-.88 4.9-2.63 1.6-4 1.6-6.9v-.6c0-2.8-.5-5.1-1.5-6.9-1-1.7-2.6-2.6-4.9-2.6-2.2 0-3.8.9-4.8 2.7s-1.6 4.1-1.6 6.9v.6z"/><path fill="#079CB4" d="M375.96 346.84c2.1 0 3.84-.8 5.2-2.4 1.34-1.58 2-3.8 2-6.65V335c-.95 1.23-2.08 2.16-3.4 2.8-1.3.6-2.7.93-4.2.93-3.97 0-7.08-1.3-9.34-3.87s-3.38-6.1-3.38-10.53c0-4.28 1.33-7.82 4-10.63 2.7-2.82 6.1-4.22 10.26-4.22 4.3 0 7.8 1.44 10.52 4.33 2.72 2.9 4.07 6.9 4.07 12v11.5c0 5-1.5 8.9-4.5 11.8-3 2.9-6.8 4.4-11.3 4.4-1.5 0-3-.1-4.6-.5-1.6-.3-3.1-.8-4.5-1.3l1.4-6.2c1.2.5 2.4.9 3.6 1.1s2.5.4 4 .4zM377 332.5c1.37 0 2.6-.3 3.65-.86 1.05-.57 1.9-1.33 2.52-2.3v-4.97c0-2.67-.55-4.72-1.64-6.14-1.1-1.4-2.56-2.12-4.4-2.12-1.72 0-3.1.8-4.16 2.4-1.05 1.6-1.58 3.6-1.58 5.9 0 2.5.4 4.4 1.4 5.9.9 1.5 2.3 2.2 4.1 2.2zm45.78 4.4h4.8v6.63h-4.8v9.26h-8.56v-9.3h-17.37l-.4-5.2 17.7-28.3h8.63v26.7zm-18.58 0h10.02v-15.5l-.17-.02-.88 1.9-8.97 13.63zm42-9.2c2.02 0 3.53-.52 4.5-1.57 1-1.06 1.5-2.54 1.5-4.45 0-1.6-.53-2.93-1.56-4-1.04-1.04-2.48-1.57-4.34-1.57-1.56 0-2.87.5-3.94 1.5-1.06 1-1.6 2.2-1.6 3.7h-8.26l-.06-.1c-.1-3.3 1.18-6.1 3.87-8.2s6.1-3.2 10-3.2c4.4 0 8 1.1 10.6 3.1 2.6 2.1 3.9 5.1 3.9 9 0 2-.5 3.8-1.7 5.4-1.1 1.7-2.6 3-4.6 3.9 2.2.9 4 2.1 5.2 3.8 1.2 1.7 1.8 3.8 1.8 6.2 0 3.9-1.4 7-4.2 9.2-2.8 2.3-6.4 3.4-10.8 3.4-3.9 0-7.2-1-10.2-3.1-2.9-2.1-4.3-5-4.2-8.9l.1-.1h8.3c0 1.6.6 3 1.7 4 1.1 1.1 2.6 1.6 4.4 1.6 2 0 3.6-.5 4.8-1.7 1.2-1.1 1.8-2.6 1.8-4.3 0-2.2-.5-3.9-1.7-5-1.1-1.1-2.8-1.6-4.9-1.6h-4.7V328h4.7zm49.53-10.97c-4.83 5.64-8.1 10.72-9.85 15.24-1.74 4.53-2.6 9.7-2.6 15.55v5.27h-8.56v-5.3c0-6 1.1-11.4 3.27-16.3 2.1-4.9 5.3-9.8 9.5-14.6h-21.8V310h30v6.6zm31.3 22.8h-2.18v13.26h-8.56v-45.7h8.5V333h1.9l7.6-11.9h9.9l-10.3 14.43 11.7 17.26h-9.9l-8.8-13.3zm29.34-18.43l.35 4.18c1.02-1.52 2.3-2.7 3.83-3.53 1.53-.83 3.3-1.25 5.3-1.25 2.04 0 3.78.45 5.23 1.35 1.44.9 2.54 2.26 3.28 4.07.98-1.7 2.25-3.02 3.8-3.98 1.57-.96 3.4-1.44 5.52-1.44 3.12 0 5.6 1.1 7.4 3.33 1.8 2.22 2.7 5.6 2.7 10.15v18.8h-8.55v-18.83c0-2.54-.4-4.3-1.17-5.3-.78-1-1.95-1.5-3.5-1.5-1.2 0-2.25.27-3.14.8-.9.55-1.6 1.3-2.12 2.25 0 .37 0 .7.03.95l.03.8v20.84h-8.53v-18.9c0-2.5-.4-4.3-1.17-5.3-.78-1.1-1.95-1.6-3.52-1.6-1.15 0-2.16.2-3.03.6-.8.4-1.5 1-2.1 1.8v23.1h-8.5V321h8z"/><path fill="#FFF" d="M609.23 1340.97H103.7V1235.6h505.53l32 52.7"/><path d="M168.45 1310.74h-8.55v-17.72h-17.4v17.72h-8.55v-42.65h8.55v18.3h17.37V1268h8.55v42.64zm25.9 0c-.3-.72-.58-1.48-.8-2.28-.23-.8-.4-1.62-.5-2.46-.87 1.54-2.03 2.82-3.48 3.83-1.44 1.02-3.16 1.53-5.15 1.53-3.32 0-5.88-.86-7.68-2.57-1.8-1.8-2.7-4.1-2.7-7 0-3.1 1.2-5.5 3.6-7.3 2.4-1.7 5.88-2.6 10.47-2.6h4.8v-2.5c0-1.6-.4-2.7-1.2-3.6-.8-.9-1.9-1.3-3.5-1.3-1.4 0-2.4.3-3.2 1-.7.6-1.1 1.6-1.1 2.7h-8.2v-.2c-.1-2.7 1.1-5 3.5-6.9 2.5-2 5.7-2.9 9.7-2.9 3.8 0 6.9.9 9.3 2.8 2.4 1.9 3.6 4.6 3.6 8.2v13.1c0 1.5.1 2.9.4 4.2.3 1.3.6 2.6 1.1 3.9h-8.5zm-7.82-5.7c1.48 0 2.8-.38 3.98-1.12s2-1.6 2.4-2.58v-4.48h-4.8c-1.8 0-3.1.45-4.1 1.34-.9.9-1.4 2-1.4 3.3 0 1.1.4 1.94 1.1 2.58.7.63 1.7.95 2.9.95zm29.17-26l.4 4.54c1.04-1.62 2.34-2.88 3.88-3.78 1.54-.9 3.27-1.34 5.2-1.34 3.2 0 5.7 1.03 7.5 3.1 1.8 2.05 2.68 5.3 2.68 9.76v19.42h-8.58v-19.4c0-2.26-.4-3.86-1.2-4.8s-1.97-1.43-3.55-1.43c-1.27 0-2.4.3-3.35.8s-1.76 1.2-2.4 2v23h-8.54v-31.7h7.97zm24.73 15.56c0-4.73 1.32-8.6 3.96-11.62s6.2-4.52 10.9-4.52 8.3 1.5 11 4.5c2.6 3.02 4 6.9 4 11.64v.6c0 4.8-1.4 8.67-4 11.67-2.7 3-6.3 4.5-11 4.5s-8.4-1.5-11-4.5c-2.7-3-4-6.88-4-11.65v-.6zm8.53.62c0 2.9.5 5.2 1.52 6.95s2.66 2.62 4.92 2.62c2.2 0 3.83-.9 4.85-2.7s1.54-4.1 1.54-7v-.6c0-2.8-.6-5.1-1.6-6.9-1.1-1.8-2.7-2.7-4.9-2.7s-3.8.9-4.9 2.7-1.6 4.1-1.6 6.8v.6zm37.67 3.7l.56 2.94h.1l.6-2.92 5.2-19.9h8.9l-10.8 31.7H283l-10.78-31.7h8.92l5.32 19.9zm35.87-12.52l-3.14-.1c-1.27 0-2.32.27-3.14.8s-1.44 1.27-1.87 2.23v21.4h-8.53v-31.7h7.94l.38 4.7c.75-1.66 1.7-2.95 2.9-3.88 1.17-.93 2.53-1.4 4.08-1.4.43 0 .82.04 1.18.1.36.08.73.16 1.1.26l-.9 7.6zm17.63 24.96c-4.73 0-8.42-1.45-11.07-4.35-2.66-2.9-4-6.6-4-11.2v-1.1c0-4.7 1.3-8.6 3.88-11.6s6.12-4.5 10.63-4.5c4.26 0 7.53 1.3 9.8 3.9 2.28 2.6 3.42 6.1 3.42 10.6v4.5h-18.9l-.1.2c.1 2.2.8 4 1.9 5.3 1.2 1.4 2.9 2.1 5.2 2.1 1.9 0 3.5-.2 4.9-.6 1.3-.4 2.7-1 4.1-1.8l2.3 5.3c-1.3 1-3 1.9-5.2 2.6s-4.5 1.1-7.1 1.1zm-.56-26.3c-1.72 0-3.04.58-3.97 1.76-.93 1.18-1.5 2.75-1.68 4.7l.06.15h10.43v-.65c0-1.85-.3-3.3-1.1-4.38s-2-1.6-3.7-1.6z"/><path fill="#079CB4" d="M400.36 1279.16c0 2.1-.54 3.98-1.64 5.6-1.1 1.64-2.6 2.9-4.5 3.83 2.3.9 4.16 2.3 5.53 4.1 1.36 1.8 2.05 3.8 2.05 6.1 0 3.9-1.37 7-4.12 9.2-2.74 2.2-6.25 3.3-10.53 3.3-4.47 0-8.14-1.1-11.02-3.3s-4.3-5.3-4.3-9.2c0-2.3.7-4.4 2.12-6.2 1.42-1.8 3.34-3.2 5.76-4.1-2-1-3.5-2.2-4.7-3.9s-1.7-3.5-1.7-5.6c0-3.8 1.3-6.7 3.9-8.7 2.6-2.1 5.9-3.1 10-3.1 4 0 7.1 1 9.6 3s3.7 4.9 3.7 8.6zm-7.12 19.28c0-1.9-.6-3.46-1.77-4.68-1.18-1.22-2.64-1.83-4.38-1.83-2 0-3.5.6-4.8 1.83-1.3 1.22-1.9 2.78-1.9 4.68 0 1.93.6 3.47 1.9 4.63s2.8 1.72 4.8 1.72c1.7 0 3.2-.6 4.3-1.8 1.1-1.2 1.7-2.7 1.7-4.7zm-1.4-18.9c0-1.68-.44-3-1.32-4s-2.02-1.48-3.43-1.48c-1.6 0-2.9.5-3.9 1.45-1 1-1.5 2.4-1.5 4.1 0 1.8.5 3.2 1.4 4.2 1 1.1 2.2 1.6 3.8 1.6 1.4 0 2.5-.5 3.4-1.6.8-1 1.3-2.4 1.3-4.2zm43.66 15.76c0 5-1.32 8.93-3.95 11.78-2.63 2.85-6.1 4.28-10.44 4.28s-7.8-1.43-10.5-4.28-3.9-6.78-3.9-11.78v-11.75c0-4.98 1.3-8.9 4-11.77 2.7-2.87 6.1-4.3 10.5-4.3s7.9 1.43 10.5 4.3c2.7 2.87 4 6.8 4 11.77v11.75zm-8.53-12.62c0-2.74-.53-4.86-1.57-6.36-1.05-1.5-2.5-2.26-4.35-2.26-1.88 0-3.33.75-4.35 2.26s-1.54 3.62-1.54 6.36v13.44c0 2.8.52 4.94 1.55 6.43 1.1 1.5 2.5 2.24 4.4 2.24 1.9 0 3.3-.8 4.4-2.3s1.6-3.7 1.6-6.5v-13.5zm15.38 9.25l2.46-23.85h23.8v6.86h-16.8l-1.1 9.96c.8-.6 1.8-1.07 3-1.45 1.2-.38 2.5-.6 4-.63 4-.06 7.1 1.17 9.2 3.68 2.2 2.5 3.3 6.03 3.3 10.56 0 4.18-1.2 7.6-3.5 10.28-2.4 2.68-6 4.02-10.8 4.02-3.9 0-7.3-1.04-10-3.12-2.8-2.08-4.1-4.94-4-8.57l.1-.15 8.2-.38c0 1.78.6 3.16 1.6 4.16 1.1 1 2.5 1.5 4.3 1.5 2.1 0 3.6-.67 4.5-2 .9-1.33 1.4-3.22 1.4-5.68s-.5-4.42-1.5-5.88c-1-1.45-2.5-2.18-4.5-2.18-1.6 0-2.9.3-3.8.9-.9.6-1.5 1.44-1.8 2.47l-7.5-.5zm59.3 5.54h-2.17v13.27h-8.56v-45.7h8.56v25.93h1.9l7.6-11.93h9.9l-10.32 14.45 11.72 17.2h-9.85l-8.8-13.3zm29.35-18.43l.35 4.2c1.02-1.53 2.3-2.7 3.82-3.54 1.54-.83 3.3-1.24 5.32-1.24 2 0 3.7.45 5.2 1.35 1.4.9 2.5 2.3 3.3 4.1.9-1.7 2.2-3 3.8-4 1.5-.9 3.4-1.4 5.5-1.4 3.1 0 5.6 1.1 7.4 3.3 1.8 2.2 2.7 5.6 2.7 10.2v18.8h-8.6V1292c0-2.5-.4-4.3-1.2-5.3-.8-1-2-1.5-3.5-1.5-1.2 0-2.3.3-3.2.8-.9.57-1.6 1.3-2.1 2.27v22.6h-8.5V1292c0-2.47-.4-4.22-1.2-5.24-.8-1.04-2-1.55-3.6-1.55-1.2 0-2.2.3-3.1.7-.9.5-1.6 1.1-2.2 1.9v23.1H523v-31.7h8z"/><path fill="#FFF" d="M628.73 1499.96H103.7V1394.6h525.03l32 52.68"/><path d="M156.7 1458.6c0-1.64-.57-2.96-1.7-3.96s-3.16-1.93-6.03-2.8c-4.92-1.5-8.66-3.24-11.2-5.25-2.56-2.1-3.83-4.8-3.83-8.3 0-3.5 1.44-6.4 4.3-8.6s6.54-3.4 11-3.4c4.72 0 8.52 1.2 11.4 3.6 2.9 2.4 4.28 5.5 4.18 9.3l-.06.2h-8.3c0-2.2-.64-3.8-1.92-5s-3.1-1.7-5.42-1.7c-2.1 0-3.74.5-4.9 1.5-1.15 1-1.73 2.3-1.73 3.9 0 1.4.6 2.6 1.8 3.5 1.2.9 3.4 1.9 6.4 2.9 4.7 1.3 8.2 3 10.7 5.2s3.7 4.9 3.7 8.4c0 3.6-1.5 6.5-4.3 8.6-2.9 2.1-6.6 3.1-11.3 3.1-4.6 0-8.6-1.2-11.8-3.5-3.3-2.3-4.9-5.7-4.8-10.2v-.2h8.3c0 2.5.7 4.4 2.2 5.5 1.5 1.2 3.5 1.8 6 1.8 2.3 0 4-.5 5.2-1.5 1.2-1 1.8-2.2 1.8-3.8zm32.9 11.13c-.3-.72-.58-1.48-.8-2.28-.23-.8-.4-1.62-.48-2.46-.88 1.5-2.05 2.8-3.5 3.8-1.44 1-3.15 1.5-5.15 1.5-3.32 0-5.88-.9-7.67-2.6-1.8-1.7-2.7-4.1-2.7-7 0-3.1 1.2-5.5 3.6-7.2 2.38-1.7 5.88-2.6 10.47-2.6h4.8v-2.5c0-1.6-.4-2.7-1.2-3.6-.8-.9-2-1.3-3.57-1.3-1.4 0-2.46.3-3.2 1-.76.6-1.14 1.6-1.14 2.7h-8.23l-.06-.2c-.14-2.7 1.03-5 3.5-7 2.47-2 5.7-2.9 9.68-2.9 3.8 0 6.9.9 9.25 2.8 2.35 1.9 3.53 4.6 3.53 8.2v13.1c0 1.5.1 2.9.33 4.2.23 1.3.58 2.6 1.07 3.9h-8.53zm-7.82-5.7c1.5 0 2.8-.38 4-1.12 1.16-.7 1.96-1.6 2.4-2.5v-4.5h-4.82c-1.8 0-3.2.5-4.1 1.4-.94.9-1.4 2-1.4 3.3 0 1.1.34 2 1.04 2.6.7.7 1.65 1 2.88 1zm30.35 5.7h-8.55v-45.7h8.55v45.7zm20.77.62c-4.72 0-8.4-1.45-11.07-4.35-2.66-2.9-3.98-6.64-3.98-11.2v-1.18c0-4.75 1.3-8.63 3.86-11.66 2.6-3.03 6.2-4.53 10.7-4.5 4.3 0 7.5 1.3 9.8 3.9 2.3 2.6 3.4 6.12 3.4 10.53v4.4h-18.9l-.1.2c.2 2.1.8 3.9 2 5.2 1.2 1.3 2.9 2 5.3 2 1.9 0 3.6-.2 4.9-.6 1.4-.4 2.7-1 4.2-1.8l2.3 5.2c-1.2 1-3 1.9-5.1 2.6s-4.5 1-7.1 1zm-.55-26.3c-1.72 0-3.04.58-3.97 1.76-.93 1.2-1.5 2.8-1.7 4.7l.07.2h10.43v-.6c0-1.8-.38-3.3-1.14-4.3s-2-1.6-3.7-1.6zm34.85 1.35l-3.12-.1c-1.27 0-2.32.26-3.14.8s-1.44 1.26-1.87 2.22v21.4h-8.53v-31.7h7.94l.38 4.7c.74-1.66 1.7-2.95 2.9-3.88 1.17-.93 2.53-1.4 4.07-1.4.43 0 .83.04 1.2.1l1.1.26-.92 7.6zm12.3-7.37l.37 4.55c1.05-1.63 2.35-2.9 3.9-3.78 1.54-.9 3.27-1.35 5.18-1.35 3.2 0 5.7 1.03 7.5 3.1 1.8 2.05 2.7 5.3 2.7 9.76v19.5h-8.6v-19.4c0-2.2-.4-3.8-1.18-4.8s-1.97-1.4-3.56-1.4c-1.2 0-2.3.3-3.3.8s-1.7 1.2-2.4 2v23h-8.5v-31.7h8zm39.77 32.32c-4.72 0-8.4-1.45-11.07-4.35-2.66-2.9-3.98-6.64-3.98-11.2v-1.18c0-4.75 1.28-8.63 3.86-11.66 2.58-3.03 6.13-4.53 10.64-4.5 4.26 0 7.52 1.3 9.8 3.9 2.27 2.6 3.4 6.12 3.4 10.53v4.4h-18.9l-.07.2c.13 2.1.8 3.9 1.97 5.2 1.2 1.3 2.94 2 5.26 2 1.92 0 3.54-.2 4.88-.6 1.34-.4 2.72-1 4.15-1.8l2.4 5.2c-1.2 1-3 1.9-5.1 2.6s-4.5 1-7.1 1zm-.55-26.3c-1.72 0-3.05.58-3.97 1.76-.93 1.2-1.5 2.8-1.7 4.7l.07.2h10.43v-.6c0-1.8-.38-3.3-1.14-4.3s-1.9-1.6-3.6-1.6z"/><path fill="#079CB4" d="M371.9 1469.73h-8.53v-35.2h-8.82V1428l17.34-1.55v43.27zm43.17-36.06c-4.82 5.64-8.1 10.73-9.84 15.25-1.74 4.52-2.6 9.7-2.6 15.54v5.27h-8.56v-5.27c0-5.94 1.08-11.35 3.26-16.24 2.18-4.9 5.35-9.75 9.5-14.55h-21.76v-6.6h30v6.6zM433 1463.8c2.1 0 3.84-.8 5.2-2.4s2-3.8 2-6.67v-2.75c-.95 1.23-2.08 2.16-3.4 2.78-1.3.63-2.7.94-4.2.94-3.97 0-7.08-1.3-9.34-3.87s-3.38-6.08-3.38-10.5c0-4.3 1.33-7.84 4-10.65 2.7-2.8 6.1-4.22 10.27-4.22 4.3 0 7.8 1.45 10.5 4.34 2.73 2.9 4.1 6.9 4.1 12v11.5c0 4.92-1.5 8.82-4.45 11.7-2.96 2.9-6.73 4.35-11.3 4.35-1.48 0-3-.16-4.58-.48-1.57-.33-3.05-.78-4.44-1.37l1.44-6.18c1.23.5 2.43.88 3.6 1.1s2.5.37 3.98.37zm1.03-14.37c1.4 0 2.6-.28 3.66-.85 1-.57 1.8-1.33 2.5-2.28v-4.98c0-2.68-.6-4.73-1.7-6.14-1.1-1.42-2.6-2.13-4.4-2.13-1.7 0-3.1.8-4.2 2.4s-1.6 3.54-1.6 5.86c0 2.5.4 4.5 1.4 5.9.9 1.5 2.3 2.3 4.1 2.3zm34.77-4.78c2.03 0 3.54-.52 4.53-1.58 1-1.05 1.48-2.54 1.48-4.45 0-1.6-.5-2.93-1.5-3.98-1-1.06-2.5-1.6-4.3-1.6-1.5 0-2.9.5-3.9 1.45-1 .9-1.6 2.1-1.6 3.6h-8.2v-.2c-.1-3.4 1.2-6.1 3.9-8.3s6.1-3.3 10-3.3c4.4 0 7.9 1 10.5 3.1 2.6 2 3.9 5 3.9 8.9 0 1.9-.5 3.7-1.6 5.3-1.1 1.6-2.6 2.9-4.6 3.8 2.3.8 4 2.1 5.2 3.8 1.2 1.7 1.8 3.8 1.8 6.2 0 3.9-1.4 7-4.2 9.2-2.8 2.2-6.4 3.3-10.8 3.3-3.9 0-7.3-1.1-10.2-3.2-2.9-2.1-4.3-5.1-4.2-8.9l.1-.2h8.3c0 1.6.6 3 1.7 4 1.1 1.1 2.6 1.6 4.3 1.6 2 0 3.6-.6 4.8-1.8 1.2-1.1 1.8-2.6 1.8-4.4 0-2.2-.5-3.9-1.7-5-1.1-1.1-2.7-1.6-4.9-1.6h-4.7v-6.4h4.7zm46.4 11.8h-2.16v13.28h-8.55v-45.7h8.5v25.93h1.9l7.6-11.93h9.9l-10.4 14.45 11.7 17.25H524l-8.8-13.27zm29.37-18.42l.35 4.2c1-1.53 2.3-2.7 3.82-3.54 1.53-.9 3.3-1.3 5.32-1.3 2.03 0 3.77.4 5.2 1.3 1.46.9 2.55 2.2 3.3 4 .97-1.7 2.24-3.1 3.8-4 1.56-1 3.4-1.4 5.5-1.4 3.14 0 5.6 1.1 7.4 3.3 1.8 2.2 2.72 5.6 2.72 10.1v18.8h-8.56v-18.8c0-2.6-.4-4.3-1.17-5.3-.78-1-1.94-1.5-3.48-1.5-1.22 0-2.27.2-3.15.8-.9.5-1.6 1.3-2.13 2.2v22.6H555v-18.9c0-2.5-.4-4.3-1.17-5.3-.78-1-1.95-1.6-3.5-1.6-1.17 0-2.18.2-3.04.6-.9.4-1.6 1-2.2 1.8v23.1h-8.5V1438h7.9z"/><path fill="#FFF" d="M109.05 700.62h539.18V806H109.05l-32-52.7"/><path d="M155.03 761.65l.06.17c0 4.55-1.4 8.12-4.2 10.7-2.9 2.57-6.8 3.86-11.8 3.86-5.2 0-9.3-1.64-12.4-4.94-3.2-3.3-4.7-7.54-4.7-12.75v-8.5c0-5.2 1.5-9.5 4.6-12.8 3-3.3 7.1-5 12-5 5.2 0 9.2 1.2 12.2 3.8s4.3 6.1 4.2 10.7l-.1.1h-8.3c0-2.8-.7-4.8-2-6.1s-3.4-2-6.1-2c-2.6 0-4.6 1-6 3.1s-2.2 4.7-2.2 8v8.5c0 3.3.7 5.9 2.2 8 1.5 2.1 3.6 3.1 6.3 3.1 2.5 0 4.4-.7 5.7-2s1.9-3.4 1.9-6.2h8.3zm14.53 14.12H161v-45.7h8.56v45.7zm20.77.6c-4.73 0-8.42-1.44-11.08-4.34-2.65-2.9-3.98-6.63-3.98-11.2v-1.18c0-4.74 1.3-8.63 3.87-11.66s6.12-4.6 10.63-4.6c4.26 0 7.53 1.3 9.8 3.9 2.28 2.6 3.42 6.1 3.42 10.5v4.4h-18.9l-.1.1c.1 2.2.8 3.9 1.9 5.3 1.2 1.3 2.9 2 5.2 2 1.9 0 3.5-.2 4.9-.6 1.3-.4 2.7-1 4.1-1.8l2.3 5.3c-1.3 1-3 1.9-5.2 2.6s-4.5 1-7.1 1zm-.56-26.3c-1.72 0-3.04.6-3.97 1.78-.93 1.18-1.5 2.74-1.68 4.7l.06.14h10.43v-.7c0-1.9-.3-3.4-1.1-4.4s-2-1.6-3.7-1.6zm29.27 13.9l.56 2.92h.17l.6-3 5.2-19.9h8.94l-10.7 31.7h-8.2L204.8 744h8.94l5.34 19.9zm32.56 12.4c-4.74 0-8.43-1.44-11.08-4.34-2.66-2.9-4-6.63-4-11.2v-1.18c0-4.74 1.3-8.63 3.88-11.66s6.12-4.6 10.63-4.6c4.26 0 7.53 1.3 9.8 3.9 2.28 2.6 3.42 6.1 3.42 10.5v4.4h-18.9l-.1.1c.15 2.2.8 3.9 2 5.3 1.17 1.3 2.92 2 5.25 2 1.9 0 3.54-.2 4.88-.6 1.33-.4 2.72-1 4.14-1.8l2.32 5.3c-1.27 1-3 1.9-5.16 2.6s-4.53 1-7.1 1zm-.57-26.3c-1.72 0-3.04.6-3.97 1.78-.93 1.18-1.5 2.74-1.68 4.7l.06.14h10.43v-.7c0-1.9-.38-3.4-1.15-4.4s-2-1.6-3.7-1.6zm27.2 25.7h-8.57v-45.7h8.56v45.7zm25.7 0c-.3-.73-.57-1.5-.8-2.3-.22-.8-.4-1.6-.5-2.45-.86 1.54-2.02 2.82-3.46 3.84-1.45 1-3.17 1.52-5.16 1.52-3.3 0-5.8-.85-7.6-2.56-1.8-1.7-2.7-4.04-2.7-7 0-3.1 1.2-5.5 3.6-7.2 2.4-1.72 5.9-2.57 10.5-2.57h4.8v-2.52c0-1.53-.4-2.7-1.2-3.55-.8-.84-1.9-1.26-3.5-1.26-1.4 0-2.4.34-3.2 1-.7.7-1.1 1.6-1.1 2.78h-8.2v-.17c-.1-2.68 1-5 3.5-6.93 2.5-1.95 5.7-2.92 9.7-2.92 3.8 0 6.9.96 9.2 2.87 2.4 1.92 3.6 4.66 3.6 8.24v13c0 1.5.1 2.9.4 4.2.2 1.3.6 2.6 1.1 3.9H304zm-7.8-5.72c1.47 0 2.8-.37 3.97-1.1s1.98-1.6 2.4-2.6v-4.47h-4.8c-1.82 0-3.2.45-4.12 1.35-.92.9-1.4 2-1.4 3.3 0 1.08.36 1.94 1.05 2.57.7.64 1.66.95 2.9.95zm29.17-25.98l.38 4.54c1.05-1.6 2.35-2.8 3.9-3.7 1.54-.9 3.27-1.3 5.18-1.3 3.2 0 5.7 1.1 7.5 3.1 1.8 2.1 2.7 5.3 2.7 9.8V776h-8.6v-19.4c0-2.26-.38-3.87-1.17-4.82s-2-1.4-3.6-1.4c-1.3 0-2.4.24-3.4.7s-1.8 1.16-2.4 2V776h-8.6v-31.7h7.9zm24.73 16.1c0-5 1.08-9.02 3.23-12.1 2.16-3.06 5.2-4.6 9.13-4.6 1.5 0 3 .35 4.2 1.04 1.2.7 2.4 1.7 3.3 3v-17.4h8.6v45.7h-7.3l-.8-3.9c-1 1.5-2.2 2.6-3.6 3.4-1.4.8-3 1.2-4.7 1.2-3.9 0-6.9-1.4-9.1-4.3-2.2-2.8-3.2-6.6-3.2-11.3v-.6zm8.52.63c0 2.77.47 4.95 1.4 6.55s2.47 2.38 4.58 2.38c1.23 0 2.3-.25 3.22-.74.92-.5 1.67-1.3 2.26-2.2v-13.5c-.5-1-1.3-1.8-2.2-2.4s-1.9-.9-3.1-.9c-2.1 0-3.6.9-4.6 2.8s-1.4 4.2-1.4 7.2v.6z"/><path fill="#079CB4" d="M416.47 732.5c1.66 0 3.2.15 4.6.45 1.43.3 2.83.75 4.22 1.33l-1.6 6.27c-1.4-.45-2.5-.78-3.6-1s-2.3-.35-3.7-.35c-2.5 0-4.5.96-6.1 2.88-1.6 1.9-2.3 4.58-2.3 8v1.37c1.1-1.1 2.5-1.98 4-2.6 1.5-.6 3.3-.92 5.2-.92 3.6 0 6.5 1.3 8.5 3.9s3.1 5.95 3.1 10.1c0 4.3-1.3 7.76-4 10.44-2.6 2.67-6.1 4-10.4 4-4.4 0-8.1-1.5-10.9-4.56-2.8-3-4.2-7.2-4.2-12.5v-8.9c0-5.4 1.6-9.7 4.8-13 3.2-3.2 7.2-4.8 12-4.8zm-1.82 21.9c-1.54 0-2.85.26-3.94.76s-1.9 1.18-2.5 2.06v2.3c0 3.27.6 5.8 1.8 7.6s2.8 2.7 4.8 2.7c1.8 0 3.2-.75 4.3-2.24s1.6-3.38 1.6-5.64c0-2.35-.5-4.2-1.6-5.52-1-1.34-2.5-2-4.3-2zm48.7 21.37h-28.63v-5.6l13.22-14.94c1.97-2.32 3.37-4.3 4.2-5.9.83-1.6 1.25-3.1 1.25-4.44 0-1.8-.5-3.2-1.4-4.3s-2.2-1.6-4-1.6c-1.9 0-3.3.6-4.3 2s-1.6 3-1.6 5.1h-8.3l-.1-.2c-.1-3.8 1.1-7 3.7-9.7 2.6-2.6 6.1-3.9 10.4-3.9 4.4 0 7.8 1.1 10.2 3.3 2.4 2.2 3.6 5.2 3.6 9 0 2.6-.7 4.9-2.1 7-1.3 2.1-3.7 5-7 8.8l-7 8.4v.1H463v6.6zm34-15.44c0 5-1.3 8.92-3.93 11.77-2.63 2.86-6.1 4.28-10.44 4.28-4.38 0-7.9-1.42-10.52-4.27s-3.96-6.7-3.96-11.7v-11.8c0-5 1.32-8.9 3.94-11.8 2.63-2.8 6.12-4.3 10.48-4.3 4.33 0 7.82 1.5 10.47 4.3 2.6 2.9 3.9 6.8 3.9 11.8v11.8zm-8.52-12.63c0-2.73-.52-4.85-1.56-6.36-1.05-1.5-2.5-2.25-4.35-2.25-1.88 0-3.33.7-4.35 2.2s-1.54 3.6-1.54 6.3V761c0 2.8.5 4.94 1.55 6.43 1.04 1.5 2.5 2.24 4.4 2.24 1.85 0 3.3-.75 4.32-2.24s1.53-3.62 1.53-6.4v-13.4zm43.37 28.07h-28.63v-5.6l13.2-14.94c2-2.32 3.4-4.3 4.22-5.9.8-1.6 1.2-3.1 1.2-4.44 0-1.8-.5-3.2-1.3-4.3s-2.2-1.6-4-1.6c-1.9 0-3.3.6-4.3 2s-1.6 3-1.6 5.1h-8.3l-.1-.2c-.1-3.8 1.1-7 3.7-9.7 2.6-2.6 6.1-3.9 10.4-3.9 4.3 0 7.7 1.1 10.2 3.3 2.4 2.2 3.6 5.2 3.6 9 0 2.6-.7 4.9-2.1 7-1.4 2.1-3.7 5-7 8.8l-7 8.4v.1H532v6.5zm31.3-13.27h-2.16v13.27h-8.55v-45.7h8.5V756h1.9l7.6-11.94h9.9l-10.3 14.44 11.7 17.27h-9.9l-8.8-13.27zm29.37-18.43l.35 4.2c1-1.54 2.3-2.7 3.82-3.54 1.54-.83 3.3-1.25 5.32-1.25 2.03 0 3.77.45 5.2 1.35 1.46.9 2.55 2.26 3.3 4.07.97-1.7 2.24-3.03 3.8-3.98 1.57-.96 3.4-1.44 5.5-1.44 3.14 0 5.6 1.1 7.4 3.33 1.82 2.3 2.72 5.6 2.72 10.2v18.8h-8.55V757c0-2.54-.4-4.3-1.18-5.3-.78-1-1.94-1.5-3.48-1.5-1.2 0-2.26.27-3.15.8-.9.54-1.6 1.3-2.13 2.25v22.6h-8.5V757c0-2.48-.4-4.23-1.2-5.26-.8-1.03-2-1.55-3.5-1.55-1.2 0-2.2.2-3.1.6-.9.4-1.6 1-2.2 1.8v23.1h-8.5V744h7.9z"/><path fill="#FFF" d="M127.55 868.6h494.18l1 105.4H128.55l-32-52.7"/><path d="M187 943.76h-8.54L161.26 915l-.17.02v28.74h-8.6V901.1h8.5l17.1 28.74.2-.03v-28.7h8.6v42.7zm5.9-16.14c0-4.73 1.32-8.6 3.96-11.62s6.3-4.53 10.95-4.53c4.7 0 8.4 1.5 11.1 4.52 2.7 3 4 6.8 4 11.6v.6c0 4.8-1.3 8.6-3.9 11.6-2.6 3-6.3 4.5-10.9 4.5-4.7 0-8.3-1.5-11-4.5-2.6-3-3.9-6.9-3.9-11.7v-.6zm8.53.6c0 2.9.5 5.22 1.52 6.97 1.02 1.7 2.66 2.6 4.92 2.6 2.2 0 3.83-.9 4.85-2.7s1.54-4.1 1.54-7v-.6c0-2.9-.52-5.1-1.55-6.9-1-1.8-2.6-2.7-4.9-2.7-2.2 0-3.8.9-4.8 2.7s-1.5 4-1.5 6.8v.6zm43.33-8.82l-3.14-.07c-1.27 0-2.3.26-3.13.8s-1.5 1.26-1.9 2.2v21.43h-8.5v-31.7h7.9l.3 4.7c.7-1.67 1.7-2.97 2.9-3.9 1.2-.92 2.5-1.4 4.1-1.4.4 0 .8.05 1.2.12l1.1.25-.9 7.58zm32.52 12.58h.17l3.84-19.92h8.3l-8.1 31.7h-7.2l-5.9-18.28h-.2l-5.9 18.28h-7.1l-8.1-31.7h8.3l3.9 19.83h.1l5.9-19.9h5.7l5.9 19.9zm25.57-27.5h-8.55v-6.43h8.55v6.42zm0 39.3h-8.55v-31.7h8.55v31.7zm20.28-5.98c1.48 0 2.66-.43 3.54-1.32s1.32-2.08 1.32-3.56h7.7v.17c.1 3.2-1.1 5.8-3.6 8s-5.5 3.2-9.2 3.2c-4.7 0-8.3-1.5-10.9-4.5-2.6-3-3.9-6.8-3.9-11.5v-.9c0-4.7 1.2-8.5 3.8-11.5s6.1-4.6 10.8-4.6c3.9 0 7 1.1 9.3 3.3 2.4 2.2 3.5 5.1 3.4 8.8l-.1.2h-7.8c0-1.7-.4-3-1.3-4.1-.9-1.1-2.1-1.6-3.6-1.6-2.2 0-3.8.8-4.7 2.6-1 1.7-1.4 4-1.4 6.7v.9c0 2.8.4 5.1 1.4 6.8.9 1.7 2.5 2.6 4.7 2.6zm26.04-21.73c1-1.44 2.22-2.57 3.66-3.38 1.45-.9 3.05-1.3 4.8-1.3 3.3 0 5.9 1.1 7.8 3.3 1.87 2.2 2.8 5.6 2.8 10.2v18.8h-8.54v-18.8c0-2.5-.4-4.2-1.2-5.3s-2-1.6-3.6-1.6c-1.3 0-2.5.2-3.4.6s-1.8 1-2.4 1.8v23.2h-8.6V898h8.5v18z"/><path fill="#079CB4" d="M390.42 924.95l2.46-23.85h23.8v6.86h-16.8l-1.17 9.96c.8-.6 1.9-1.07 3.1-1.45 1.2-.38 2.6-.6 4-.63 4-.06 7.1 1.17 9.2 3.68 2.2 2.5 3.3 6.03 3.3 10.56 0 4.18-1.2 7.6-3.5 10.28-2.3 2.68-6 4-10.8 4-3.9 0-7.3-1.03-10.1-3.1-2.8-2.1-4.1-4.94-4-8.57l.1-.2 8.2-.4c0 1.8.6 3.1 1.6 4.1 1.1 1 2.5 1.5 4.3 1.5 2.1 0 3.5-.7 4.5-2 1-1.4 1.4-3.2 1.4-5.7s-.5-4.5-1.5-5.9c-1-1.5-2.5-2.2-4.5-2.2-1.6 0-2.9.3-3.7.9-.8.6-1.5 1.4-1.8 2.4l-7.5-.5zm58.33 2.93h4.8v6.62h-4.8v9.26h-8.55v-9.26h-17.38l-.4-5.13 17.7-28.27h8.63v26.78zm-18.57 0h10.02v-15.5l-.18-.03-.88 1.9-8.96 13.63zm48.34 15.88H470v-35.22h-8.83V902l17.35-1.5v43.26zm40.05-13.26h-2.17v13.26h-8.56v-45.7h8.56v25.92h1.9l7.6-11.92h9.9l-10.32 14.44 11.72 17.26h-9.84l-8.8-13.27zm29.35-18.44l.35 4.2c1.02-1.54 2.3-2.7 3.83-3.54 1.53-.83 3.3-1.25 5.3-1.25 2.05 0 3.78.45 5.23 1.35 1.44.9 2.54 2.26 3.28 4.07 1-1.7 2.3-3.1 3.9-4s3.4-1.5 5.5-1.5c3.2 0 5.6 1.1 7.4 3.3 1.8 2.2 2.7 5.6 2.7 10.1v18.8h-8.5v-18.8c0-2.6-.4-4.3-1.1-5.3-.7-1-1.9-1.5-3.5-1.5-1.2 0-2.2.2-3.1.8-.9.5-1.6 1.3-2.1 2.2 0 .3 0 .7.1.9v21.7h-8.5v-18.8c0-2.5-.4-4.3-1.2-5.3-.7-1-1.9-1.6-3.5-1.6-1.1 0-2.1.3-3 .7-.9.5-1.6 1.1-2.1 1.9v23.1H540V912h7.94z"/><path fill="#B1B1B1" d="M315.12 632h102v12.26h-102zm0-248.9h102v12.25h-102z"/><path fill="#FFF" d="M582.23 229.03H168.2V123.65h414.03l32 52.7"/><path d="M204.73 183.33v15.47h-8.56v-42.66h16.32c4.9 0 8.7 1.25 11.5 3.75 2.8 2.5 4.2 5.7 4.2 9.8 0 4.1-1.4 7.3-4.2 9.8-2.8 2.5-6.7 3.7-11.6 3.7h-7.8zm0-6.6h7.76c2.3 0 4.1-.64 5.4-1.94 1.2-1.3 1.8-3 1.8-5 0-2.1-.6-3.8-1.9-5.1-1.2-1.4-3.1-2-5.5-2h-7.8v14zm47.4 22.07c-.3-.73-.58-1.5-.8-2.3-.23-.8-.4-1.6-.5-2.45-.87 1.54-2.03 2.82-3.47 3.84-1.45 1-3.17 1.5-5.16 1.5-3.32 0-5.88-.9-7.68-2.6-1.8-1.7-2.7-4.1-2.7-7 0-3.1 1.2-5.5 3.6-7.2 2.4-1.7 5.88-2.6 10.47-2.6h4.8v-2.5c0-1.6-.4-2.7-1.2-3.6-.8-.9-2-1.3-3.6-1.3-1.4 0-2.5.3-3.2 1-.8.7-1.2 1.6-1.2 2.8h-8.3l-.1-.2c-.2-2.7 1-5 3.5-6.9 2.4-2 5.7-3 9.7-3 3.8 0 6.9 1 9.2 2.9 2.3 1.9 3.5 4.6 3.5 8.2v13.1c0 1.5.1 2.9.3 4.2.2 1.3.5 2.6 1 3.9H252zm-7.82-5.72c1.5 0 2.9-.37 4-1.1 1.2-.75 2-1.6 2.4-2.6v-4.47h-4.8c-1.8 0-3.2.5-4.1 1.4-.9.9-1.4 2-1.4 3.3 0 1.1.4 2 1.1 2.6.7.7 1.7 1 2.9 1zm38.1-18.63l-3.1-.1c-1.2 0-2.3.28-3.1.8s-1.4 1.27-1.8 2.23v21.42h-8.5v-31.7h8l.4 4.68c.7-1.66 1.7-2.95 2.9-3.88 1.2-.92 2.6-1.4 4.1-1.4.4 0 .8.04 1.2.1l1.1.26-.9 7.6zm13.5-14.95h-8.5v-6.4h8.6v6.4zm0 39.3h-8.5v-31.7h8.6v31.7zM320 190c0-.93-.46-1.74-1.37-2.4s-2.6-1.27-5.06-1.78c-3.7-.74-6.53-1.87-8.46-3.37-1.9-1.5-2.8-3.55-2.8-6.12 0-2.72 1.1-5.03 3.5-6.95 2.3-1.9 5.4-2.87 9.2-2.87 4 0 7.2 1 9.6 2.9 2.4 1.9 3.6 4.3 3.5 7.2v.2h-8.2c0-1.2-.4-2.3-1.2-3.1-.8-.8-2-1.2-3.6-1.2-1.3 0-2.4.4-3.2 1.1-.8.7-1.2 1.5-1.2 2.5s.4 1.8 1.2 2.4c.8.6 2.5 1.2 5.1 1.7 3.9.8 6.8 2 8.7 3.5 1.9 1.5 2.9 3.6 2.9 6.3 0 2.8-1.2 5.2-3.6 7-2.4 1.8-5.7 2.7-9.7 2.7-4.2 0-7.6-1.1-10-3.2-2.5-2.1-3.6-4.6-3.5-7.3v-.2h7.9c0 1.7.6 3 1.7 3.7s2.5 1.2 4.2 1.2c1.6 0 2.8-.3 3.6-.9.9-.6 1.3-1.5 1.3-2.6z"/><path fill="#079CB4" d="M368.73 198.8h-8.52v-35.22h-8.8v-6.53l17.4-1.53v43.28zm39.07-15.88h4.82v6.62h-4.8v9.26h-8.56v-9.26H381.9l-.42-5.13 17.7-28.2h8.63V183zm-18.56 0h10.02v-15.5l-.18-.03-.87 1.9-8.9 13.6zm41.98-9.2c2.03 0 3.54-.53 4.53-1.58 1-1.06 1.48-2.54 1.48-4.46 0-1.6-.52-2.93-1.56-3.98-1.03-1.06-2.48-1.58-4.33-1.58-1.56 0-2.88.48-3.94 1.43-1.07.96-1.6 2.18-1.6 3.66h-8.26l-.06-.1c-.12-3.3 1.17-6.1 3.87-8.2s6.02-3.2 10-3.2c4.4 0 7.9 1.1 10.5 3.1 2.6 2.1 3.9 5.1 3.9 9 0 2-.56 3.8-1.68 5.4-1.13 1.6-2.66 2.9-4.62 3.9 2.23.8 3.95 2.1 5.16 3.8 1.3 1.7 1.9 3.8 1.9 6.2 0 3.9-1.4 7-4.2 9.2-2.8 2.3-6.4 3.4-10.8 3.4-3.9 0-7.3-1-10.2-3.1-2.9-2.1-4.3-5-4.2-8.8l.1-.2h8.3c0 1.6.6 3 1.7 4.1 1.1 1.1 2.6 1.7 4.4 1.7 2 0 3.5-.6 4.8-1.7 1.2-1.1 1.8-2.6 1.8-4.3 0-2.2-.5-3.9-1.7-5-1.1-1.1-2.8-1.6-5-1.6h-4.7v-6.4h4.7zm46.4 11.8h-2.16v13.28h-8.55v-45.7h8.6V179h1.9l7.6-11.92h9.9l-10.3 14.44 11.7 17.26h-9.8l-8.8-13.28zM507 167.1l.36 4.2c1-1.54 2.3-2.7 3.82-3.54 1.53-.83 3.3-1.25 5.32-1.25 2.03 0 3.76.5 5.2 1.4 1.46.9 2.55 2.3 3.3 4.1.97-1.7 2.24-3 3.8-4 1.56-.9 3.4-1.4 5.5-1.4 3.13 0 5.6 1.1 7.4 3.4 1.8 2.2 2.72 5.6 2.72 10.2V199h-8.56v-19c0-2.55-.4-4.3-1.17-5.3-.8-1-2-1.5-3.5-1.5-1.2 0-2.3.26-3.2.8-.9.54-1.6 1.3-2.1 2.24v22.6h-8.6V180c0-2.48-.4-4.23-1.2-5.26-.8-1.03-2-1.54-3.5-1.54-1.2 0-2.2.22-3.1.66-.9.44-1.6 1.06-2.2 1.86v23.12H499v-31.7h7.9z"/><path fill="#B1B1B1" d="M315.12 229.2h102v12.24h-102zm0 576.9h102v12.24h-102zm0 167.96h102v12.25h-102zm0 366.97h102v12.25h-102zm0 158.94h102v12.25h-102z"/><g fill="#FCE8DE"><path d="M2000.45 1329.58l3.76.13.5 1.3h2.9l1-.9 3.4.5.1 2.2-.7.4-.1 2.5 2 1.7v1.9h1.3l.3-1 5.2.5 6.7 1.6 1.7 1.3 3.3-.1 2.6-2.5 2.4-1-2.2-.6-1.2-1.4 1.9-1.8.7-2.6 3.8-2.6 3.7-1.9 5.8-1.5 4.6-3 3.4-4.7 1.4-5.6-.5-7.1 1.3-4.1 3.3-2 4-.8 5.9-3.1 1.9 3.9-.6 2.6 3.3 2.5 2.5 1.4 2.9-2.7 2.1 2.4.4 2.5 1.6 2.4 3.7-.5 1.9 2.5.4 1.6 4-.2 2.1-.2 1.7 1.5-.6 3.6 1.5 1.1-.8 1.9 1.5 1.2 5-.1 2.2-2 2.2-4v5.5l1.3 3.8 6.8 2.5 3.3 3.8 2.7-.1 2-1.8 2.2 2.4 4.7-.5 2.3-1.2 2.8 1.2 4.8 6.4 2.7.3-.2-1.3 2.8-.3 1.9 2 3-.4.8-1.3 2 .3 1.9 2.3 5.6-1 4.9 1.5-.9 4.9-4 4.1-2.1 14.1.8 4.9-1.2 4 1.2 3.3.4 2.9-2 2.5-3.9.1-.2-1.8-1.4.4-3 2.5v2l2.6-.6-.5 1.9-5.4 8.6-3 .5-.4 5.9-4.7 4.4.8 1.4-1.3 2v1.8l2 1.3-1.1 2.5-2.7 1.3 1.5 2 3.3-.9 1.5-1.6v-1.4l-1.4-1.4 1.6-1.4 3-.2 3.3-2.3 3.5 3.9-1.5 3.4 1.7.1 3.5 4.9-1.6 2.5-2.1 1 .2 2.4 1.7 1.4 2 .3.3 3.2 3.5 2.7v4.5l-4.3 3.1h-3.8l.1 2.9 2 1.1.6 2.4 4.6 1.3v5.9l-2.5 2 2.6 2.1-1.64.6v1.8l4 3h2.8l1.4 1.2 6.23.6 1.4-2.5 1.26 3.36-.9 3-1.9 2.6 1.3 2.37-3.5 1.9-3 1.3-1.4 3.3-2.1 1.2-1.6 3.3-3.1 1.7-.3 4.9-5.2.8-2.65 2.64-5.1.9-5.7-1-6.9-1.9v-2.7l-2.8-.1-1.6 1-9.9-.2-1.5-2.8-2.9.9-4.9-.2-2-2.2-9.55 7.3-2.2.37-3.9 3.7-2.3 5.1.1 6.7 1.25 5.3-1.2.6-2.7.5-4.5 3.9-3.7-.2-2.6-1.7-3.4.4-.5 1.5h-3.1l-.8-2.3-3.8-1.9-.2-2.1-4.5-1.5-1.4 1.5-1.6-3.1-3.9.3-1.2-2-3.9-.5-5-.9 1 4.1-6.8.5-8.2-.8v-1.9l-4.9-1.4-4.5 1.3-3.6-4.8h-5.8l-3.8-2.4-.6-1.5-.6-.2-.9 2-1.5-.22v-1.6l1-.6-.1-4-6.4-1-1.4-2 3.2-1 3.4-4 1-5.2 2.2-7.4 1.16-8.1 1-8 2.74.6-2.5-3.3.6-9.3.6-8.7 1.7-1 2 1.8 3.2 4.4 1.9 4.7-.6-7.9-4.2-4.2-5.4-2.9.35-4-3-3.2.6-2.4 2 1.7 1.4 2.3 1.9-1.3-.3-3.2-2.4-2.4h-3.1l-1.9 1.6-2.1-1.9 1.7-2.7 2.5 1.3h3.4l-1.1-1.9-3.75-1.9-3.8-1.5-3-2.5-.2-3.8-4-3.7.33-2.5 1.9-3-1.1-2.1-2.3-.4-1-3.2-3.5.3-1.1-2.3.7-4.3-1.5-1.2-4.1.8-1.3-1.5h-1.6l-1.23 1.5-1.75-.8.1-2.9-1.6-1.7-1.5.4-2.8 1.9-1.8-.4-.24-1.9 2.7-.3-2.4-2.4-4.6-1.2-1.1-1.2-2 .1-1.8 2-2.5-.2-1.7-2.9v-2.6l-3.4-1-1.2-.4.28-1.4 1.3-1 4.1-.1 1 .8 1.6-.2.2-2-1.9-.5-2.1.4-1.5-.4.26-1.9 1.4-.1 3.63.4v-1.5l-2.4-1-1.6.9-3.1.2-1.5-3.2 1.2-2.8 3.8-1.4 4.5-1 4.2-.5 3.1 1.1.3-1.24h4.7l.8-3 2.9-.1 4.8.6 2.5 3.3 1.9 3.3 1.5 1.73 2.5-.5 1.8-2.7 4.8 1.5.9-1.34 4.4-.8 1 1.7 3.5.2 1.7-1.8-1.2-2-.5-10.3-3.8-5.6-.9-4-.1-2.65-.9-1.9m182 180.93l2.3.3.8 2.5-.2 6.07 1.8 2.5 1 2.3.5 2.9 1.3 3.9-.4 4.2-1.5 2.84.1 3.92.96 1.8v2.9l-1.3 3.9-.6 2.8-2.2.6-1.3-1.6-5.5-.9-1.1-1.2.4-2.3-3.4-2 1.5-1.34.3-3.2-3.6.4-.1-2.2 1.9-2.6-1.1-.9-2.3-.46-.53-2.8 1.1-.5.2-.9-1.3-1.2 1.1-4.5 3.2-3.4 3.7-1.2.9-2.6 3.4-.9.95-2-1-2.86.1-2.4zm-235-152.75c0 .6-.4 1.1-1 1.1s-1.1-.5-1.1-1.1.5-1.1 1.1-1.1 1.03.5 1.03 1.1z"/><path d="M1976.05 1388l.2 2.5 3.74.28-1-1.73-1.4-1.1-1.5.48m-2-2.98v.83l1.5.83 1-.8-1-.9-1.6.2m5.9 2l2.2 2.5 1.1-.2-1.9-2.4-1.4.2m11.6 10.3l.2 1.9 2.4.7.2-2-1.1-1.1-1.9.5m-2.2 7.3l.3 1.7 2.6.1-1.1-1.8-2 .2m5-64.2l.3 1.5 2.5 2.1 3.2-.7-.9-2.2-2.7-2.2-2.4 1.3m-6.6-7v3.1l1 .6 2.3.1 1.5-2.2-2.9-1.1-1.8-.5m8.5-4.9l-.3 3 1.5-.2-.3-2.8-.9-.1m-7.9 11.9c0 .4-.3.7-.7.7s-.7-.3-.7-.7.3-.7.7-.7.6.3.6.7zm8.9 70.4c0 .6-.3 1-.7 1s-.7-.4-.7-.9.3-1 .6-1 .6.5.6 1z"/></g><path fill="none" stroke="#000" stroke-width="4" stroke-miterlimit="10" d="M1977.74 1313.95h79.58v55.86h-79.58z"/><path d="M2016.4 1418.97h-16.38v17.73h-8.55v-42.66h27.9v6.6h-19.35v11.74h16.38v6.6zm23.7-6.62l-3.14-.1c-1.27 0-2.3.28-3.13.8s-1.45 1.28-1.88 2.23v21.42h-8.52V1405h7.94l.38 4.7c.74-1.67 1.7-2.97 2.88-3.9s2.55-1.4 4.1-1.4c.42 0 .82.05 1.18.12s.8.15 1.1.25l-.9 7.58zm23.14 24.35c-.3-.72-.58-1.5-.8-2.3s-.4-1.6-.5-2.45c-.87 1.54-2.03 2.82-3.47 3.84s-3.17 1.5-5.16 1.5c-3.3 0-5.8-.9-7.6-2.6s-2.7-4.1-2.7-7c0-3.1 1.2-5.5 3.6-7.2 2.4-1.7 5.9-2.6 10.5-2.6h4.8v-2.5c0-1.6-.4-2.7-1.2-3.6s-1.9-1.3-3.5-1.3c-1.4 0-2.4.3-3.2 1s-1.1 1.6-1.1 2.8h-8.2v-.2c-.1-2.7 1-5 3.5-6.9 2.5-2 5.7-3 9.7-3 3.8 0 6.9 1 9.2 2.9s3.6 4.6 3.6 8.2v13.1c0 1.5.1 2.8.4 4.2s.6 2.6 1.1 3.9h-8.5zm-7.82-5.72c1.48 0 2.8-.37 3.98-1.1s1.98-1.6 2.4-2.6v-4.47h-4.8c-1.8 0-3.2.5-4.1 1.4s-1.4 2-1.4 3.3c0 1.1.34 2 1.03 2.6s1.66 1 2.9 1zm29.18-25.98l.38 4.54c1.06-1.62 2.35-2.88 3.9-3.78s3.27-1.35 5.18-1.35c3.2 0 5.7 1.1 7.5 3.1s2.7 5.4 2.7 9.8v19.5h-8.6v-19.4c0-2.2-.38-3.8-1.17-4.8s-2-1.4-3.6-1.4c-1.3 0-2.4.3-3.4.7s-1.8 1.2-2.4 2v23h-8.6V1405h7.9zm39.3 25.75c1.47 0 2.65-.44 3.53-1.33s1.32-2.08 1.32-3.56h7.8l.05.17c.08 3.2-1.1 5.9-3.57 8.05s-5.5 3.23-9.14 3.23c-4.7 0-8.4-1.5-10.9-4.4s-3.9-6.8-3.9-11.5v-.9c0-4.6 1.2-8.5 3.8-11.5s6.1-4.5 10.8-4.5c3.8 0 6.9 1.2 9.3 3.4s3.5 5.2 3.4 8.8l-.1.2h-7.8c0-1.6-.5-3-1.3-4.1s-2.1-1.6-3.6-1.6c-2.3 0-3.8.9-4.7 2.7s-1.4 4-1.4 6.8v.9c0 2.8.4 5.1 1.4 6.8s2.5 2.6 4.7 2.6zm31.42 6.55c-4.72 0-8.42-1.44-11.07-4.34s-4-6.63-4-11.2v-1.18c0-4.74 1.3-8.63 3.88-11.66s6.12-4.53 10.64-4.5c4.26 0 7.52 1.3 9.8 3.9s3.4 6.12 3.4 10.54v4.42h-18.9l-.07.18c.13 2.16.8 3.92 1.97 5.27s2.94 2.02 5.26 2.02c1.92 0 3.54-.2 4.88-.6s2.8-.97 4.2-1.77l2.3 5.27c-1.2 1.03-3 1.9-5.1 2.6s-4.5 1.06-7.1 1.06zm-.55-26.3c-1.72 0-3.05.6-3.97 1.78s-1.5 2.75-1.7 4.7l.07.15h10.43v-.65c0-1.85-.38-3.3-1.14-4.38s-2-1.6-3.7-1.6z"/></svg>